<svg width="1920" height="1080" viewBox="0 0 1920 1080" fill="none" xmlns="http://www.w3.org/2000/svg">
<g clip-path="url(#clip0_203_2)">
<rect width="1920" height="1096" fill="#D9EBFF"/>
<path fill-rule="evenodd" clip-rule="evenodd" d="M129.656 0H484.374L483.288 2.46479L485.597 2.44749L356.909 296.693L232.761 295.334L232.815 295.217L0 294.784L39.4947 204.283H274.268L326.132 90.5146H90.5144L129.656 0Z" fill="#ECF5FF"/>
<path fill-rule="evenodd" clip-rule="evenodd" d="M1680.94 296.693L1326.22 296.693L1327.31 294.228L1325 294.245L1453.69 -3.92985e-05L1577.84 1.35922L1577.78 1.47632L1810.6 1.90862L1771.1 92.4096L1536.33 92.4095L1484.47 206.178L1720.08 206.178L1680.94 296.693Z" fill="#ECF5FF"/>
<path fill-rule="evenodd" clip-rule="evenodd" d="M168.656 800H523.374L522.288 802.465L524.597 802.447L395.909 1096.69L271.761 1095.33L271.815 1095.22L39 1094.78L78.4947 1004.28H313.268L365.132 890.515H129.514L168.656 800Z" fill="#ECF5FF"/>
<path fill-rule="evenodd" clip-rule="evenodd" d="M168.656 800H523.374L522.288 802.465L524.597 802.447L395.909 1096.69L271.761 1095.33L271.815 1095.22L39 1094.78L78.4947 1004.28H313.268L365.132 890.515H129.514L168.656 800Z" fill="#ECF5FF"/>
<path fill-rule="evenodd" clip-rule="evenodd" d="M-21 1093.69L-383.749 1093.69L-382.638 1091.23L-385 1091.25L-253.398 797L-126.44 798.359L-126.494 798.476L111.591 798.909L71.2023 889.41L-168.886 889.409L-221.924 1003.18L19.0275 1003.18L-21 1093.69Z" fill="#ECF5FF"/>
<path fill-rule="evenodd" clip-rule="evenodd" d="M-77 293.693L-439.749 293.693L-438.638 291.228L-441 291.245L-309.398 -3.0001L-182.44 -1.64084L-182.494 -1.52374L55.5912 -1.09144L15.2023 89.4095L-224.886 89.4095L-277.924 203.178L-36.9725 203.178L-77 293.693Z" fill="#ECF5FF"/>
<path fill-rule="evenodd" clip-rule="evenodd" d="M1789.94 1095.69L1435.22 1095.69L1436.31 1093.23L1434 1093.25L1562.69 799L1686.84 800.359L1686.78 800.476L1919.6 800.909L1880.1 891.41L1645.33 891.41L1593.47 1005.18L1829.08 1005.18L1789.94 1095.69Z" fill="#ECF5FF"/>
<path fill-rule="evenodd" clip-rule="evenodd" d="M1546.94 688.693L1192.22 688.693L1193.31 686.228L1191 686.245L1319.69 392L1443.84 393.359L1443.78 393.476L1676.6 393.909L1637.1 484.41L1402.33 484.41L1350.47 598.178L1586.08 598.178L1546.94 688.693Z" fill="#ECF5FF"/>
<path fill-rule="evenodd" clip-rule="evenodd" d="M794 296.693L431.251 296.693L432.362 294.228L430 294.245L561.602 2.19202e-05L688.56 1.35929L688.506 1.47638L926.591 1.90868L886.202 92.4096L646.114 92.4096L593.076 206.178L834.028 206.178L794 296.693Z" fill="#ECF5FF"/>
<path fill-rule="evenodd" clip-rule="evenodd" d="M1014.59 0H1377.34L1376.23 2.46481L1378.59 2.44751L1246.99 296.693L1120.03 295.334L1120.09 295.217L882 294.784L922.389 204.283H1162.48L1215.52 90.5146H974.564L1014.59 0Z" fill="#ECF5FF"/>
<path fill-rule="evenodd" clip-rule="evenodd" d="M-37.4088 400H325.341L324.23 402.465L326.591 402.447L194.989 696.693L68.0309 695.334L68.0855 695.217L-170 694.784L-129.611 604.283H110.478L163.515 490.515H-77.4363L-37.4088 400Z" fill="#ECF5FF"/>
<path fill-rule="evenodd" clip-rule="evenodd" d="M641 689L278.251 689L279.362 686.599L277 686.616L408.602 400L535.56 401.324L535.506 401.438L773.591 401.859L733.202 490.013L493.114 490.013L440.076 600.832L681.028 600.832L641 689Z" fill="#ECF5FF"/>
<path fill-rule="evenodd" clip-rule="evenodd" d="M867.591 400H1230.34L1229.23 402.465L1231.59 402.447L1099.99 696.693L973.031 695.334L973.086 695.217L735 694.784L775.389 604.283H1015.48L1068.52 490.515H827.564L867.591 400Z" fill="#ECF5FF"/>
<path fill-rule="evenodd" clip-rule="evenodd" d="M850 1096.69L487.251 1096.69L488.361 1094.23L486 1094.25L617.602 800L744.56 801.359L744.506 801.476L982.591 801.909L942.202 892.41L702.113 892.409L649.076 1006.18L890.027 1006.18L850 1096.69Z" fill="#ECF5FF"/>
<path fill-rule="evenodd" clip-rule="evenodd" d="M1108.59 799H1471.34L1470.23 801.465L1472.59 801.448L1340.99 1095.69L1214.03 1094.33L1214.09 1094.22L976 1093.78L1016.39 1003.28H1256.48L1309.52 889.515H1068.56L1108.59 799Z" fill="#ECF5FF"/>
<path fill-rule="evenodd" clip-rule="evenodd" d="M1752.59 392H2115.34L2114.23 394.465L2116.59 394.447L1984.99 688.693L1858.03 687.334L1858.09 687.217L1620 686.784L1660.39 596.283H1900.48L1953.52 482.515H1712.56L1752.59 392Z" fill="#ECF5FF"/>
<path fill-rule="evenodd" clip-rule="evenodd" d="M1892.66 0H2247.37L2246.29 2.46479L2248.6 2.44749L2119.91 296.693L1995.76 295.334L1995.81 295.217L1763 294.784L1802.49 204.283H2037.27L2089.13 90.5146H1853.51L1892.66 0Z" fill="#ECF5FF"/>
</g>
<defs>
<clipPath id="clip0_203_2">
<rect width="1920" height="1080" fill="white"/>
</clipPath>
</defs>
</svg>
