<svg width="1728" height="1117" viewBox="0 0 1728 1117" fill="none" xmlns="http://www.w3.org/2000/svg">
<g clip-path="url(#clip0_1_2)">
<rect width="1728" height="1117" fill="url(#paint0_linear_1_2)"/>
<g clip-path="url(#clip1_1_2)">
<path d="M1125.9 992.133C921.08 983.425 740.268 976.828 661.915 976.828C533.583 976.828 172.961 979.551 -93.1904 981.714C-104.728 982.374 -115.949 983.002 -126.971 983.601C-111.743 1009.67 -94.043 1034.94 -73.7768 1059.2C15.0825 1165.56 150.336 1253.29 314.479 1310.97C450.643 1358.82 606.666 1386 772.478 1386C938.305 1386 1094.33 1358.81 1230.49 1310.97C1394.64 1253.28 1529.89 1165.56 1618.75 1059.2C1625.25 1051.42 1631.46 1043.54 1637.44 1035.57C1459.1 1024.61 1217.08 1007.74 1125.9 992.133Z" fill="#27726C"/>
<path d="M1125.9 992.133C921.08 983.425 740.268 976.828 661.915 976.828C533.583 976.828 172.961 979.551 -93.1904 981.714C-104.728 982.374 -115.949 983.002 -126.971 983.601C-111.743 1009.67 -94.043 1034.94 -73.7768 1059.2C15.0825 1165.56 150.336 1253.29 314.479 1310.97C450.643 1358.82 606.666 1386 772.478 1386C938.305 1386 1094.33 1358.81 1230.49 1310.97C1394.64 1253.28 1529.89 1165.56 1618.75 1059.2C1625.25 1051.42 1631.46 1043.54 1637.44 1035.57C1459.1 1024.61 1217.08 1007.74 1125.9 992.133Z" fill="#27726C"/>
<path d="M1125.9 992.133C921.08 983.425 740.268 976.828 661.915 976.828C533.583 976.828 172.961 979.551 -93.1904 981.714C-104.728 982.374 -115.949 983.002 -126.971 983.601C-111.743 1009.67 -94.043 1034.94 -73.7768 1059.2C15.0825 1165.56 150.336 1253.29 314.479 1310.97C450.643 1358.82 606.666 1386 772.478 1386C938.305 1386 1094.33 1358.81 1230.49 1310.97C1394.64 1253.28 1529.89 1165.56 1618.75 1059.2C1625.25 1051.42 1631.46 1043.54 1637.44 1035.57C1459.1 1024.61 1217.08 1007.74 1125.9 992.133Z" fill="#27726C"/>
<path d="M1125.9 992.133C921.08 983.425 740.268 976.828 661.915 976.828C533.583 976.828 172.961 979.551 -93.1904 981.714C-104.728 982.374 -115.949 983.002 -126.971 983.601C-111.743 1009.67 -94.043 1034.94 -73.7768 1059.2C15.0825 1165.56 150.336 1253.29 314.479 1310.97C450.643 1358.82 606.666 1386 772.478 1386C938.305 1386 1094.33 1358.81 1230.49 1310.97C1394.64 1253.28 1529.89 1165.56 1618.75 1059.2C1625.25 1051.42 1631.46 1043.54 1637.44 1035.57C1459.1 1024.61 1217.08 1007.74 1125.9 992.133Z" fill="#27726C"/>
<path d="M1125.9 992.133C921.08 983.425 740.268 976.828 661.915 976.828C533.583 976.828 172.961 979.551 -93.1904 981.714C-104.728 982.374 -115.949 983.002 -126.971 983.601C-111.743 1009.67 -94.043 1034.94 -73.7768 1059.2C15.0825 1165.56 -192.465 1328.32 -28.3222 1386C107.841 1433.86 606.666 1386 772.478 1386C938.305 1386 1658.93 1422.56 1795.09 1374.71C1959.23 1317.02 1706.23 1235.25 1795.09 1128.89C1801.59 1121.12 1763.44 1051.16 1769.42 1043.19C1591.09 1032.23 1217.08 1007.74 1125.9 992.133Z" fill="#27726C"/>
<path d="M1093.52 984.308C1039.18 960.13 1078.11 941.897 1078.11 941.897C1087.7 923.714 615.825 920.194 483.88 919.574C441.979 922.021 386.247 925.982 328.465 932.146C334.888 946.318 340.49 956.03 340.49 956.03L321.344 954.989C276.907 958.075 70.0106 972.368 -93.1742 981.714C172.973 979.551 533.599 976.828 661.931 976.828C740.284 976.828 921.096 983.412 1125.91 992.133C1110.4 989.478 1099.24 986.863 1093.52 984.308Z" fill="#27726C"/>
<path d="M1093.52 984.308C1039.18 960.13 1078.11 941.897 1078.11 941.897C1087.7 923.714 615.825 920.194 483.88 919.574C441.979 922.021 386.247 925.982 328.465 932.146C334.888 946.318 340.49 956.03 340.49 956.03L321.344 954.989C276.907 958.075 70.0106 972.368 -93.1742 981.714C172.973 979.551 533.599 976.828 661.931 976.828C740.284 976.828 921.096 983.412 1125.91 992.133C1110.4 989.478 1099.24 986.863 1093.52 984.308Z" fill="#27726C"/>
<path d="M1093.52 984.308C1039.18 960.13 1078.11 941.897 1078.11 941.897C1087.7 923.714 615.825 920.194 483.88 919.574C441.979 922.021 386.247 925.982 328.465 932.146C334.888 946.318 340.49 956.03 340.49 956.03L321.344 954.989C276.907 958.075 70.0106 972.368 -93.1742 981.714C172.973 979.551 533.599 976.828 661.931 976.828C740.284 976.828 921.096 983.412 1125.91 992.133C1110.4 989.478 1099.24 986.863 1093.52 984.308Z" fill="#27726C"/>
<path d="M1093.52 984.308C1039.18 960.13 1078.11 941.897 1078.11 941.897C1087.7 923.714 615.825 920.194 483.88 919.574C441.979 922.021 386.247 925.982 328.465 932.146C334.888 946.318 340.49 956.03 340.49 956.03L321.344 954.989C276.907 958.075 70.0106 972.368 -93.1742 981.714C172.973 979.551 533.599 976.828 661.931 976.828C740.284 976.828 921.096 983.412 1125.91 992.133C1110.4 989.478 1099.24 986.863 1093.52 984.308Z" fill="#27726C"/>
<path d="M1093.52 984.308C1039.18 960.13 1078.11 941.897 1078.11 941.897C1087.7 923.714 615.825 920.194 483.88 919.574C441.979 922.021 386.247 925.982 328.465 932.146C334.888 946.318 340.49 956.03 340.49 956.03L321.344 954.989C276.907 958.075 70.0106 972.368 -93.1742 981.714C172.973 979.551 533.599 976.828 661.931 976.828C740.284 976.828 921.096 983.412 1125.91 992.133C1110.4 989.478 1099.24 986.863 1093.52 984.308Z" fill="#1D5E58"/>
<path d="M553.305 885.221C562.732 885.526 572.191 885.939 581.407 886.449C582.137 885.928 583.047 885.229 584.11 884.404C573.831 884.74 563.54 885.006 553.305 885.221Z" fill="#27726C"/>
<path d="M553.305 885.221C562.732 885.526 572.191 885.939 581.407 886.449C582.137 885.928 583.047 885.229 584.11 884.404C573.831 884.74 563.54 885.006 553.305 885.221Z" fill="#27726C"/>
<path d="M553.305 885.221C562.732 885.526 572.191 885.939 581.407 886.449C582.137 885.928 583.047 885.229 584.11 884.404C573.831 884.74 563.54 885.006 553.305 885.221Z" fill="#27726C"/>
<path d="M553.305 885.221C562.732 885.526 572.191 885.939 581.407 886.449C582.137 885.928 583.047 885.229 584.11 884.404C573.831 884.74 563.54 885.006 553.305 885.221Z" fill="#27726C"/>
<path d="M553.305 885.221C562.732 885.526 572.191 885.939 581.407 886.449C582.137 885.928 583.047 885.229 584.11 884.404C573.831 884.74 563.54 885.006 553.305 885.221Z" fill="#1D5E58"/>
<path d="M1283.05 833.403C1285.52 835.232 1287.77 837.001 1289.74 838.681C1348.36 830.346 1415.17 818.737 1456.12 811.072L1283.05 833.403Z" fill="#8F8377"/>
<path d="M1141.33 966.131C1141.33 966.131 1120.7 941.941 1131.01 924.665C1133.94 919.764 1137.7 915.783 1141.59 912.473C1097.17 912.138 948.255 911.116 906.717 912.574C862.975 914.117 644.561 914.281 552.427 914.3C553.691 914.893 555.047 915.504 556.131 916.026C556.131 916.026 527.366 916.965 483.485 919.619C615.906 920.272 1089.48 923.928 1079.85 942.81C1079.85 942.81 1040.8 961.751 1095.32 986.87C1101.06 989.515 1112.26 992.23 1127.82 994.988C1219.31 1011.2 1584.25 1035.4 1763.26 1046.78C1768.08 1040.14 1762.36 1032.5 1766.85 1025.74C1769.93 1021.08 1767.52 1010.94 1770.45 1006.24C1582.75 1001.55 1205.49 990.392 1141.33 966.131Z" fill="#8F8377"/>
<path d="M1722.82 668.315C1716.62 667.902 1712.56 669.847 1717.31 674.97C1721.7 679.698 1724.46 685.517 1727.41 691.473C1726.03 683.728 1724.65 675.982 1722.82 668.315Z" fill="#FFFFFD"/>
<path d="M1733.26 744.028C1733.11 740.648 1733.11 737.247 1732.86 733.885C1729.84 733.903 1726.52 733.777 1722.46 733.186C1700.04 729.961 1699.26 732.881 1687.54 723.976C1687.18 723.7 1686.89 723.513 1686.5 723.208C1673.65 713.231 1683.93 699.934 1663.38 708.248C1642.82 716.564 1650.55 724.877 1640.27 729.871C1630.01 734.855 1627.42 743.171 1612.02 748.162C1596.59 753.146 1591.46 756.478 1573.49 756.478C1555.51 756.478 1545.23 773.108 1532.39 761.462C1519.54 749.815 1527.26 744.84 1509.27 746.493C1491.28 748.165 1514.4 744.843 1491.28 748.165C1468.17 751.487 1483.58 763.125 1468.17 751.487C1452.76 739.841 1468.17 743.163 1452.76 739.841C1437.35 736.518 1432.21 734.857 1421.93 741.512C1411.67 748.167 1434.79 748.167 1411.67 748.167C1388.56 748.167 1373.13 744.845 1362.86 738.182C1352.59 731.527 1334.6 721.552 1334.6 721.552L1306.35 739.843C1306.35 739.843 1262.69 749.821 1247.27 748.167C1231.84 746.496 1213.87 744.845 1201.04 733.199C1188.18 721.56 1183.05 724.893 1188.18 713.247C1193.31 701.6 1188.18 713.247 1193.31 701.6C1198.46 689.954 1183.05 691.623 1183.05 691.623C1183.05 691.623 1146.57 705.128 1122.17 717.326C1124.74 722.751 1126.54 727.853 1126.54 731.53C1126.54 741.113 1129.2 763.583 1130.69 775.426C1157.68 783.369 1182.05 789.727 1190.75 789.727C1207.95 789.727 1253.1 812.284 1279.32 830.685C1280.64 831.618 1281.84 832.515 1283.05 833.408L1456.12 811.085C1470.8 808.344 1482.33 806.084 1488.7 804.706C1506.66 800.824 1598.95 784.92 1687.54 771.867C1703.26 769.547 1718.89 767.318 1733.95 765.262C1733.95 764.674 1734.01 764.103 1734.01 763.512C1734.02 756.972 1733.56 750.507 1733.26 744.028Z" fill="#FFFFFD"/>
<path d="M1727.41 691.484C1724.47 685.528 1721.7 679.709 1717.31 674.98C1712.56 669.86 1716.63 667.905 1722.83 668.325C1720.92 660.227 1718.58 652.216 1716.18 644.226C1708.81 619.653 1699.22 595.611 1687.53 572.169C1680.41 557.878 1672.45 543.832 1663.82 530.002C1657.49 532.488 1652.81 533.834 1650.53 533.619C1632.54 531.957 1627.41 528.625 1609.44 520.311C1591.45 511.995 1568.34 480.397 1560.63 472.08C1554.73 465.72 1547.26 461.288 1531.48 455.096L1534.3 467.872L1518.88 482.841C1518.88 482.841 1484.2 482.841 1445.67 500.296C1407.13 517.762 1407.13 522.755 1407.13 522.755C1407.13 522.755 1357.04 547.701 1341.63 555.192C1326.21 562.673 1310.8 572.647 1287.68 585.132C1264.56 597.606 1226.01 577.641 1226.01 577.641C1226.01 577.641 1202.9 570.15 1168.21 575.144C1133.52 580.138 1168.21 575.144 1141.23 587.626C1114.26 600.101 1071.87 592.61 1071.87 592.61C1058.68 581.631 1036.36 534.423 1061.53 534.423C1062.4 534.423 1063.29 534.383 1064.16 534.373C1047.5 532.26 1050.74 526.48 1036.6 518.637C1018.63 508.659 992.941 490.369 992.941 490.369C992.941 490.369 974.965 498.685 964.702 503.676C954.423 508.659 900.485 550.235 900.485 550.235L846.543 525.289C859.388 536.928 854.257 565.204 872.229 580.164C890.206 595.133 895.337 603.46 913.326 610.104C931.302 616.759 936.434 621.75 954.422 625.073C972.399 628.395 972.399 625.073 1000.65 631.728C1028.92 638.383 1041.75 645.035 1057.16 645.035C1072.58 645.035 1080.28 651.69 1087.98 660.004C1089.42 661.557 1090.83 663.502 1092.21 665.558C1098.27 674.552 1103.38 686.611 1103.38 686.611C1103.38 686.611 1115.44 703.122 1122.13 717.308C1146.51 705.109 1183.01 691.605 1183.01 691.605C1183.01 691.605 1198.42 689.944 1193.27 701.582C1188.14 713.228 1193.27 701.582 1188.14 713.228C1183.01 724.875 1188.14 721.545 1201 733.18C1213.84 744.827 1231.82 746.488 1247.23 748.149C1262.64 749.8 1306.31 739.825 1306.31 739.825L1334.56 721.534C1334.56 721.534 1352.55 731.511 1362.81 738.164C1373.09 744.819 1388.5 748.149 1411.63 748.149C1434.75 748.149 1411.63 748.149 1421.89 741.494C1432.17 734.839 1437.31 736.5 1452.72 739.822C1468.13 743.145 1452.72 739.822 1468.13 751.469C1483.56 763.107 1468.13 751.469 1491.24 748.146C1514.36 744.824 1491.24 748.146 1509.23 746.475C1527.22 744.824 1519.51 749.797 1532.35 761.443C1545.19 773.09 1555.46 756.46 1573.45 756.46C1591.43 756.46 1596.55 753.138 1611.98 748.144C1627.39 743.15 1629.97 734.836 1640.23 729.853C1650.51 724.869 1642.79 716.545 1663.34 708.229C1683.89 699.913 1673.63 713.223 1686.46 723.19C1686.85 723.495 1687.13 723.681 1687.5 723.957C1699.22 732.862 1700.01 729.942 1722.42 733.167C1726.47 733.756 1729.8 733.885 1732.82 733.866C1731.83 719.605 1729.9 705.49 1727.41 691.484Z" fill="#ACA6A6"/>
<path d="M1126.52 731.527C1126.52 727.842 1124.72 722.751 1122.15 717.323C1115.46 703.141 1103.4 686.627 1103.4 686.627C1103.4 686.627 1098.29 674.557 1092.23 665.573C1090.85 663.518 1089.42 661.562 1088 660.02C1080.3 651.703 1072.58 645.051 1057.18 645.051C1041.77 645.051 1028.94 638.396 1000.67 631.744C972.419 625.089 972.419 628.421 954.443 625.089C936.454 621.766 931.323 616.772 913.346 610.12C895.358 603.475 890.226 595.159 872.249 580.18C854.261 565.219 859.392 536.943 846.564 525.305C833.719 513.659 777.215 497.037 777.215 497.037C753.442 503.455 719.023 531.576 704.51 544.127C714.013 552.522 719.344 560.53 728.405 565.23C741.25 571.885 774.633 585.182 774.633 585.182C774.633 585.182 808.033 598.489 818.296 606.795C828.575 615.111 838.838 608.456 838.838 623.435C838.838 635.397 970.207 701.585 1024.16 733.58C1036.25 740.745 1044.4 746.18 1046.36 748.914C1064.39 754.851 1099.29 766.193 1130.69 775.424C1129.18 763.57 1126.52 741.11 1126.52 731.527Z" fill="#3C3B40"/>
<path d="M1086.7 847.076H1083C1084.26 847.173 1085.56 847.283 1086.87 847.38L1086.7 847.076Z" fill="#797979"/>
<path d="M1283.05 833.403C1281.82 832.499 1280.63 831.605 1279.31 830.68C1253.09 812.279 1207.94 789.722 1190.74 789.722C1182.04 789.722 1157.67 783.361 1130.68 775.421C1099.29 766.193 1064.37 754.849 1046.35 748.911C1046.57 749.235 1046.85 749.571 1046.9 749.815C1047.72 753.55 1042.17 756.421 1034.29 758.613C1017.61 763.241 990.371 764.784 990.371 764.784L864.5 729.866L843.442 722.514L725.145 681.194C729.152 686.493 734.499 693.195 739.87 700.234C741.084 701.059 741.782 702.071 741.936 702.928C750.165 713.809 757.907 724.975 760.018 732.082C764.301 746.491 795.119 774.759 802.832 781.424C810.529 788.069 874.746 814.686 859.34 826.322C855.877 828.937 850.579 832.357 844.339 836.081C854.07 836.042 861.918 834.636 861.918 834.636C861.918 834.636 836.232 824.658 890.169 824.658C944.111 824.658 962.1 821.336 987.785 824.658C1013.47 827.981 1036.58 839.627 1049.44 842.949C1053.67 844.04 1065.82 845.672 1082.99 847.078H1086.69L1086.87 847.383C1094.72 847.983 1103.39 848.535 1112.91 848.955C1125.98 849.536 1140.43 849.88 1155.64 849.841C1176.2 849.791 1198.15 848.987 1220.16 847.078C1223.18 846.813 1226.22 846.576 1229.24 846.271C1246.99 844.474 1267.81 841.798 1289.72 838.683C1287.77 837.001 1285.52 835.232 1283.05 833.403Z" fill="#797979"/>
<path d="M1046.33 748.914C1044.37 746.18 1036.22 740.745 1024.14 733.58C970.194 701.587 838.814 635.397 838.814 623.435C838.814 608.467 828.551 615.111 818.271 606.795C807.992 598.479 774.609 585.182 774.609 585.182C774.609 585.182 741.226 571.874 728.381 565.23C719.315 560.53 714.005 552.522 704.485 544.127C700.507 540.628 695.891 537.059 689.834 533.629C677.492 526.64 656.889 522.062 642.347 519.504C650.134 534.964 653.519 561.789 655.253 573.034C657.819 589.663 666.608 617.167 669.174 623.819C670.964 628.469 688.681 649.619 698.278 664.777C702.423 671.324 704.806 675.185 707.128 678.705C708.236 680.384 723.387 678.833 725.178 681.202L843.474 722.522L864.532 729.874L990.404 764.797C990.404 764.797 1017.64 763.254 1034.33 758.626C1042.21 756.434 1047.75 753.563 1046.93 749.828C1046.83 749.571 1046.56 749.229 1046.33 748.914Z" fill="#686867"/>
<path d="M367.893 487.059C362.335 480.964 350.343 482.076 350.343 482.076C348.171 478.438 346.47 476.444 345.122 474.832C345.289 475.589 345.638 476.404 345.638 477.082C345.638 486.744 350.907 493.005 355.657 499.599C358.921 495.896 369.322 488.613 367.893 487.059Z" fill="#6D6D6C"/>
<path d="M741.952 702.923C741.969 703.02 742.058 703.149 742.058 703.246C742.058 704.907 748.054 714.332 748.054 714.332L760.047 732.074C757.94 724.969 750.182 713.804 741.952 702.923Z" fill="#6D6D6C"/>
<path d="M588.803 868.444C581.955 866.223 586.238 873.438 575.11 866.223C563.982 859.019 560.552 860.128 559.699 852.924C559.378 850.29 558.38 848.511 557.133 847.076C554.961 844.579 551.819 843.498 548.571 843.498C543.44 843.498 522.033 841.837 522.033 841.837C522.033 841.837 459.513 807.474 444.955 804.144C430.397 800.822 406.424 789.725 390.165 789.175C373.889 788.626 372.176 790.836 361.913 788.626C359.802 788.174 355.097 785.963 349.04 782.728C365.21 794.414 386.734 815.448 392.032 847.078C392.353 849.034 392.471 851.118 392.67 853.152C422.306 863.984 451.195 874.658 476.653 884.28C495.722 884.191 524.262 884.28 553.305 885.224C563.536 885.008 573.831 884.743 584.11 884.399C584.549 884.054 584.869 883.818 585.369 883.416C595.648 875.099 595.664 870.665 588.803 868.444Z" fill="#6D6D6C"/>
<path d="M802.865 781.419C795.151 774.764 764.334 746.488 760.051 732.076L741.226 739.833L737.795 752.591V773.095L729.233 791.386C729.233 791.386 718.954 799.15 724.102 801.363C729.233 803.584 731.799 812.45 731.799 812.45C731.799 812.45 730.951 818.553 742.927 821.875C754.919 825.197 755.772 828.53 760.051 829.631C764.334 830.743 773.761 829.631 772.896 834.073C772.047 838.507 766.9 842.939 766.9 842.939C766.9 842.939 763.94 845.238 759.158 847.068C756.941 847.914 754.465 848.679 751.493 849.034C742.078 850.146 748.062 852.916 732.668 850.695C717.972 848.582 720.233 852.898 709.365 847.068C708.833 846.784 708.423 846.597 707.818 846.253C707.818 846.253 699.256 837.937 703.535 835.167C707.818 832.394 718.077 830.732 719.811 826.301C721.512 821.867 713.815 815.215 713.815 810.77C713.815 806.336 724.094 787.485 727.508 781.39C730.922 775.295 730.939 754.783 730.939 754.783L721.512 761.987L708.667 758.105C708.667 758.105 700.953 766.411 694.957 768.083C688.961 769.744 683.829 778.609 675.267 779.169C666.705 779.718 657.279 779.169 644.45 774.175C631.593 769.181 630.74 764.75 623.896 767.52C617.047 770.293 632.458 776.386 628.179 777.497C623.896 778.609 633.31 785.814 615.334 781.38C597.357 776.945 595.644 769.733 593.062 766.411C590.48 763.089 596.492 765.299 581.082 765.299C565.671 765.299 570.803 764.75 557.093 764.75C543.399 764.75 538.252 769.184 531.407 765.862C524.558 762.529 536.538 755.324 520.279 760.868C504.004 766.411 504.004 769.184 498.024 771.405C492.028 773.615 497.159 779.721 485.179 775.287C473.186 770.845 471.469 772.514 465.489 767.523C459.509 762.529 447.513 755.324 447.513 755.324C447.513 755.324 440.664 742.577 436.385 741.465C432.102 740.353 432.954 745.907 422.691 743.686C412.412 741.465 403.002 740.913 397.854 738.692C392.722 736.471 384.161 735.919 384.161 728.165C384.161 720.409 391.022 720.401 381.595 718.188C372.168 715.975 368.75 716.527 363.606 714.866C358.475 713.205 352.478 712.085 352.478 712.085C352.478 712.085 334.502 718.74 326.793 718.74C319.083 718.74 306.238 719.3 311.37 727.056C316.501 734.821 340.49 755.324 353.331 758.105C366.16 760.868 384.148 774.175 401.276 777.497C418.4 780.83 452.652 796.351 462.079 798.572C471.493 800.782 559.683 822.958 559.683 822.958L620.469 834.596C620.469 834.596 633.314 829.613 645.29 831.834C657.283 834.055 654.717 833.495 665.845 836.817C671.902 838.625 682.713 843.028 692.732 847.049C701.156 850.43 709.024 853.547 712.938 854.559C721.5 856.78 744.62 856.78 756.6 856.78C768.592 856.78 780.573 856.23 772.859 863.435C769.883 866.226 767.423 868.741 764.963 871.002C794.871 862.912 802.706 853.281 802.114 847.057C801.854 844.345 800.019 842.271 797.697 841.267C793.552 839.477 798.423 836.765 806.108 835.124C812.726 833.708 821.397 833.08 828.53 834.615C833.784 835.755 839.309 836.079 844.351 836.06C850.591 832.336 855.905 828.914 859.352 826.301C874.779 814.678 810.562 788.063 802.865 781.419Z" fill="#6D6D6C"/>
<path d="M735.213 698.814C737.17 698.814 738.721 699.435 739.89 700.228C734.515 693.2 729.173 686.487 725.166 681.189C723.359 678.81 721.763 676.657 720.655 674.978C718.333 671.469 714.598 665.671 710.453 659.123C700.86 643.968 689.062 624.742 687.272 620.092C684.706 613.447 666.718 588.502 664.152 571.872C662.422 560.628 650.126 534.964 642.335 519.504C638.6 512.113 635.896 507.011 635.896 507.011C635.896 507.011 620.473 487.049 612.776 483.727C605.079 480.404 599.931 468.766 592.234 453.797C584.52 438.829 548.571 452.136 548.571 452.136C535.726 452.136 522.886 443.831 515.172 447.153C507.475 450.475 484.355 443.831 476.641 440.498C468.944 437.165 448.402 438.826 440.692 438.826C432.983 438.826 394.448 457.117 394.448 457.117L352.775 466.111L361.913 469.315C361.913 469.315 354.2 468.766 364.479 472.638C364.479 472.638 373.906 476.52 375.607 472.638C375.607 472.638 382.455 473.749 385.021 474.859C387.587 475.97 396.149 477.632 398.715 478.191C401.28 478.741 402.161 481.514 401.28 483.724C400.416 485.945 400.416 493.701 400.416 493.701L408.978 499.804L419.257 505.9C419.257 505.9 444.094 507.011 443.246 510.894C442.381 514.776 442.381 515.887 434.684 516.997C426.97 518.108 420.126 521.98 420.126 521.98C420.126 521.98 420.974 526.422 425.257 528.094C429.54 529.755 448.377 530.856 448.377 530.856L438.098 537.511L422.675 549.709C422.675 549.709 432.102 558.026 437.233 565.779C442.365 573.544 460.353 595.159 466.338 602.364C472.334 609.568 482.613 620.105 489.458 622.875C496.306 625.638 502.303 630.08 509.131 633.402C515.992 636.724 522.841 641.166 522.841 641.166C522.841 641.166 536.534 650.032 539.116 650.592C541.682 651.141 582.779 651.141 582.779 651.141L574.217 659.457C574.217 659.457 584.496 667.773 606.751 665.56L631.573 676.647C631.573 676.647 617.027 681.63 625.576 687.173C634.122 692.717 652.115 699.931 652.115 699.931C652.115 699.931 676.952 706.576 676.952 702.694C676.952 698.822 663.259 697.71 671.804 696.049C680.366 694.388 680.366 695.5 687.215 697.151C687.337 697.18 687.443 697.208 687.564 697.24C694.198 698.883 698.388 700.504 700.909 701.585C703.474 702.686 720.598 713.231 725.746 709.901C730.878 706.579 734.292 702.697 734.292 702.697C734.292 702.697 730.93 698.814 735.213 698.814Z" fill="#6D6D6C"/>
<path d="M183.817 355.675L163.263 349.02L147.84 350.681L109.309 358.997L78.4914 355.675L60.515 362.33L42.5263 377.299L1.42969 393.928L73.3437 397.251L75.9257 385.612L114.457 390.606L147.84 372.315L170.96 370.654H201.794C201.794 370.654 203.539 368.404 206.227 365.739L183.817 355.675Z" fill="#FFFFFD"/>
<path d="M282.27 454.349C279.704 453.79 257.448 451.576 252.301 451.576C247.153 451.576 227.479 456.56 227.479 456.56L201.794 463.215C199.228 466.537 222.348 462.666 236.041 460.442C249.735 458.232 251.452 456.56 254.883 457.12C258.313 457.68 278.855 456.56 284.835 454.909C290.831 453.238 284.835 454.909 282.27 454.349Z" fill="#FFFFFD"/>
<path d="M1687.54 771.865C1598.96 784.917 1506.67 800.822 1488.71 804.704C1482.33 806.081 1470.81 808.341 1456.13 811.083C1415.17 818.739 1348.36 830.357 1289.76 838.691C1267.83 841.806 1247.02 844.481 1229.27 846.279C1226.25 846.584 1223.22 846.821 1220.2 847.086C1198.2 848.992 1176.23 849.788 1155.68 849.849C1140.45 849.888 1125.99 849.544 1112.94 848.963C1103.43 848.54 1094.75 847.99 1086.9 847.391C1085.6 847.294 1084.29 847.183 1083.03 847.086C1065.86 845.68 1053.72 844.048 1049.48 842.957C1036.64 839.635 1013.52 827.988 987.83 824.666C962.144 821.344 944.168 824.666 890.214 824.666C836.26 824.666 861.962 834.643 861.962 834.643C861.962 834.643 854.115 836.06 844.384 836.089C839.341 836.1 833.832 835.774 828.563 834.643C821.442 833.111 812.758 833.739 806.141 835.153C798.46 836.796 793.584 839.509 797.729 841.296C800.051 842.297 801.89 844.374 802.146 847.086C802.755 853.308 794.904 862.941 764.996 871.031C764.996 871.031 764.996 871.041 764.979 871.041C764.78 871.091 764.541 871.178 764.342 871.217C720.68 882.864 664.16 892.83 602.505 887.847C595.75 887.298 588.645 886.846 581.419 886.451C572.203 885.941 562.744 885.537 553.317 885.224C524.258 884.28 495.734 884.191 476.666 884.28C477.636 884.643 478.578 885.008 479.536 885.371C470.519 885.163 461.726 884.919 453.545 884.517L519.857 912.117L525.476 914.457H552.619C644.422 914.438 862.051 914.281 905.637 912.796C947.022 911.389 1095.41 912.372 1139.66 912.698C1149.43 904.658 1159.96 901.16 1159.96 901.16C1159.96 901.16 1277.87 871.152 1373.54 847.091C1430.6 832.74 1479.79 820.495 1491.3 818.016C1505.07 815.049 1562.02 802.349 1627.4 789.002C1647.02 785.001 1667.36 780.951 1687.57 777.079C1703.25 774.073 1718.83 771.173 1733.86 768.508C1733.87 767.428 1733.98 766.356 1733.98 765.265C1718.88 767.312 1703.27 769.544 1687.54 771.865Z" fill="#272D17"/>
<path d="M248.87 473.76C244.603 472.648 241.173 471.539 236.041 471.539C230.91 471.539 222.348 473.76 222.348 473.76C222.348 473.76 212.069 477.082 206.072 478.194C200.076 479.306 193.244 480.404 183.817 480.404C174.403 480.404 172.689 483.177 164.127 484.846C155.565 486.508 156.414 485.396 152.135 484.287C147.852 483.175 151.27 481.514 138.425 480.964C125.596 480.404 117.034 484.287 111.887 484.287C106.755 484.287 94.7628 483.727 90.4798 483.727C86.1968 483.727 79.3521 483.727 71.6386 482.625C63.9251 481.514 58.7936 478.772 53.6621 478.191C39.1039 476.52 51.0964 482.625 53.6621 483.724C56.2279 484.836 67.3556 488.166 72.5033 489.267C77.6511 490.369 88.7625 492.59 98.1892 492.59C107.604 492.59 106.751 492.59 117.879 491.478C129.007 490.366 129.007 489.257 132.437 489.257C135.868 489.257 140.134 489.806 147.848 489.806C155.561 489.806 159.84 488.694 169.271 487.585C178.686 486.484 176.968 487.585 189.825 487.585C202.654 487.585 199.24 485.375 205.236 483.703C211.232 482.042 213.798 480.93 224.926 479.269C236.054 477.608 235.189 478.157 241.185 478.157C247.181 478.157 253.177 478.157 256.596 477.045C260.014 475.973 253.165 474.861 248.87 473.76Z" fill="#FFFFFD"/>
<path d="M64.7899 498.146C57.9411 495.925 39.9687 490.942 34.8209 490.382C29.6895 489.822 9.13505 484.279 9.98353 489.822C9.98353 489.822 64.7736 503.692 69.9214 507.014C75.0691 510.344 71.6386 500.367 64.7899 498.146Z" fill="#FFFFFD"/>
<path d="M416.703 628.411C411.572 622.316 434.692 609.568 434.692 604.025C434.692 598.482 426.978 592.378 423.564 586.283C420.134 580.18 415.002 576.298 410.719 570.203C408.352 566.831 404.13 561.061 399.259 554.643C397.846 553.011 396.555 551.342 395.434 549.62C392.58 545.935 389.633 542.169 386.751 538.612C382.5 533.345 361.929 515.877 354.642 501.468C354.46 501.106 354.947 500.417 355.661 499.6C350.911 493.005 345.642 486.744 345.642 477.082C345.642 476.394 345.293 475.579 345.126 474.832C343.458 472.856 342.378 471.413 341.834 468.482C341.744 468.03 341.684 467.489 341.623 466.95C334.396 455.961 319.96 443.823 319.96 443.823L296.852 418.866C296.852 418.866 273.744 412.211 266.035 405.559C258.337 398.904 250.624 383.935 245.48 377.291C240.332 370.636 235.201 360.661 224.926 357.328C218.414 355.226 210.899 361.113 206.251 365.723C203.563 368.386 201.818 370.638 201.818 370.638H170.984L147.852 372.297L114.469 390.588L75.9378 385.594L73.3558 397.232L1.44178 393.91L-1.57865 394.323C-23.8341 413.844 -44.2383 434.287 -62.8968 455.459C-59.4054 455.763 -55.9141 456 -52.4958 456C-41.3681 456 -39.6508 451.017 -18.2479 449.897C3.17529 448.796 11.7373 448.236 11.7373 448.236C11.7373 448.236 23.7175 449.348 33.1442 452.678C42.5587 456 42.5587 456 53.6986 457.112C64.8263 458.224 70.8225 460.434 79.3845 461.554C87.9465 462.666 104.206 465.425 104.206 465.425C104.206 465.425 123.895 467.097 126.461 468.206C129.027 469.307 134.175 471.528 134.175 473.19C134.175 474.851 136.74 475.963 129.892 475.963C123.043 475.963 115.346 476.512 111.067 475.413C106.784 474.301 97.3569 472.64 87.9465 470.43C78.5198 468.209 66.5233 467.108 60.5433 466.548C54.5471 465.998 49.4156 465.436 44.2841 464.887C39.1364 464.327 35.7221 462.114 30.5744 463.775C25.4266 465.436 16.0162 470.43 16.0162 470.43C16.0162 470.43 2.32275 474.864 -2.82499 474.301C-7.95648 473.752 -37.0607 469.867 -37.0607 469.867C-37.0607 469.867 -38.7901 472.088 -63.6154 472.088C-68.9742 472.088 -73.2247 471.912 -76.777 471.665C-88.5259 485.956 -99.4141 500.593 -109.45 515.522C-81.6974 539.506 -51.5904 565.729 -21.1831 592.523C-0.49064 591.845 132.624 589.79 222.072 642.512C245.939 656.576 266.737 674.486 281.417 697.427C281.417 697.427 281.007 698.065 280.475 699.196C290.693 693.064 309.701 687.883 331.076 681.622C357.614 673.858 370.471 685.504 375.603 671.645C380.734 657.786 370.471 654.463 381.599 655.015C392.727 655.565 400.424 652.242 403.006 646.699C405.588 641.166 403.854 641.166 404.723 638.383C405.588 635.62 404.723 637.834 417.568 635.62C430.397 633.402 421.835 634.514 416.703 628.411ZM69.9213 507.012C64.7898 503.689 9.98345 489.819 9.98345 489.819C9.11873 484.276 29.6731 489.819 34.8209 490.379C39.9524 490.928 57.9288 495.922 64.7898 498.143C71.6548 500.367 75.069 510.344 69.9213 507.012ZM256.579 477.082C253.149 478.194 247.153 478.194 241.169 478.194C235.173 478.194 236.037 477.634 224.91 479.306C213.782 480.967 211.2 482.079 205.22 483.74C199.224 485.401 202.654 487.622 189.809 487.622C176.952 487.622 178.665 486.521 169.255 487.622C159.828 488.734 155.545 489.843 147.832 489.843C140.134 489.843 135.851 489.294 132.421 489.294C128.99 489.294 128.99 490.405 117.863 491.515C106.735 492.624 107.583 492.626 98.1729 492.626C88.7462 492.626 77.6185 490.405 72.487 489.304C67.3555 488.203 56.2116 484.87 53.6458 483.761C51.0801 482.66 39.0877 476.557 53.6458 478.228C58.7773 478.817 63.9088 481.55 71.6223 482.662C79.3358 483.764 86.1805 483.764 90.4635 483.764C94.7465 483.764 106.723 484.323 111.87 484.323C117.018 484.323 125.58 480.441 138.409 481.001C151.254 481.561 147.836 483.212 152.119 484.323C156.402 485.435 155.549 486.544 164.111 484.883C172.673 483.212 174.39 480.441 183.801 480.441C193.227 480.441 200.076 479.34 206.056 478.231C212.052 477.119 222.332 473.797 222.332 473.797C222.332 473.797 230.894 471.576 236.025 471.576C241.157 471.576 244.587 472.677 248.854 473.797C253.165 474.861 260.014 475.973 256.579 477.082ZM284.835 454.909C278.839 456.56 258.297 457.682 254.883 457.12C251.452 456.56 249.735 458.232 236.041 460.442C222.348 462.663 199.228 466.545 201.793 463.215L227.479 456.56C227.479 456.56 247.153 451.576 252.301 451.576C257.432 451.576 279.704 453.797 282.269 454.349C284.835 454.899 290.831 453.238 284.835 454.909Z" fill="#797979"/>
<path d="M134.142 473.2C134.142 471.539 129.011 469.318 126.429 468.217C123.863 467.105 104.173 465.436 104.173 465.436C104.173 465.436 87.914 462.673 79.352 461.564C70.7901 460.452 64.7938 458.242 53.6661 457.122C42.5384 456.011 42.5384 456.011 33.1117 452.688C23.685 449.366 11.7048 448.246 11.7048 448.246C11.7048 448.246 3.1428 448.806 -18.2804 449.907C-39.6873 451.019 -41.4005 456.011 -52.5282 456.011C-55.9425 456.011 -59.4217 455.774 -62.9293 455.469C-64.5532 457.317 -66.2379 459.146 -67.8334 461.002H-31.9738C-27.6908 461.002 -37.9701 464.324 -48.2493 464.324C-55.975 464.324 -64.1918 465.583 -72.8756 466.674C-74.2437 468.317 -75.4698 470.014 -76.8217 471.668C-73.2694 471.912 -69.0189 472.091 -63.66 472.091C-38.8388 472.091 -37.1053 469.87 -37.1053 469.87C-37.1053 469.87 -8.00115 473.752 -2.86965 474.304C2.26185 474.864 15.9715 470.432 15.9715 470.432C15.9715 470.432 25.3982 465.438 30.5297 463.777C35.6612 462.116 39.0917 464.327 44.2394 464.889C49.3709 465.438 54.5024 466.001 60.4987 466.55C66.4786 467.11 78.4751 468.211 87.9018 470.432C97.3163 472.643 106.743 474.304 111.022 475.416C115.305 476.517 123.014 475.965 129.847 475.965C136.724 475.973 134.142 474.861 134.142 473.2Z" fill="#FFFFFD"/>
<path d="M341.598 466.95C341.659 467.491 341.72 468.022 341.81 468.482L342.371 468.353C342.086 467.883 341.919 467.431 341.598 466.95Z" fill="#FFFFFD"/>
<path d="M342.39 468.356L341.83 468.485C342.378 471.413 343.454 472.848 345.122 474.835C344.667 472.816 343.77 470.656 342.39 468.356Z" fill="#FFFFFD"/>
<path d="M756.62 856.806C744.64 856.806 721.504 856.806 712.958 854.585C709.057 853.573 701.177 850.456 692.753 847.076C682.733 843.057 671.91 838.652 665.865 836.843C654.737 833.521 657.303 834.07 645.311 831.86C633.33 829.639 620.49 834.622 620.49 834.622L559.703 822.984C559.703 822.984 471.498 800.811 462.099 798.598C452.673 796.377 418.437 780.856 401.297 777.524C384.173 774.201 366.18 760.894 353.351 758.132C340.506 755.359 316.521 734.847 311.39 727.083C306.258 719.318 319.103 718.766 326.813 718.766C334.522 718.766 352.499 712.111 352.499 712.111C352.499 712.111 358.495 713.223 363.626 714.892C368.758 716.553 372.188 715.993 381.615 718.214C391.042 720.435 384.181 720.435 384.181 728.192C384.181 735.948 392.743 736.508 397.874 738.718C403.006 740.939 412.42 741.491 422.712 743.712C432.991 745.933 432.138 740.39 436.405 741.491C440.688 742.603 447.533 755.351 447.533 755.351C447.533 755.351 459.525 762.555 465.509 767.549C471.489 772.543 473.223 770.871 485.199 775.313C497.192 779.747 492.048 773.652 498.044 771.431C504.04 769.21 504.04 766.437 520.3 760.894C536.559 755.351 524.583 762.555 531.427 765.888C538.276 769.21 543.42 764.776 557.113 764.776C570.823 764.776 565.675 765.325 581.102 765.325C596.525 765.325 590.517 763.104 593.082 766.437C595.648 769.77 597.378 776.974 615.354 781.406C633.33 785.84 623.916 778.633 628.199 777.524C632.494 776.422 617.071 770.319 623.916 767.546C630.765 764.773 631.613 769.208 644.47 774.201C657.299 779.195 666.726 779.745 675.288 779.195C683.85 778.635 688.981 769.77 694.977 768.109C700.974 766.448 708.687 758.132 708.687 758.132L721.532 762.014L730.959 754.809C730.959 754.809 730.959 775.321 727.528 781.416C724.098 787.511 713.835 806.373 713.835 810.796C713.835 815.23 721.532 821.883 719.831 826.327C718.114 830.761 707.839 832.422 703.556 835.193C699.273 837.966 707.839 846.279 707.839 846.279C708.448 846.613 708.841 846.81 709.385 847.094C720.257 852.924 717.992 848.608 732.688 850.721C748.099 852.942 742.103 850.172 751.513 849.06C754.489 848.705 756.965 847.94 759.178 847.094C763.96 845.265 766.92 842.965 766.92 842.965C766.92 842.965 772.068 838.523 772.916 834.099C773.781 829.657 764.354 830.777 760.071 829.657C755.788 828.556 754.94 825.223 742.947 821.901C730.955 818.579 731.819 812.476 731.819 812.476C731.819 812.476 729.254 803.61 724.122 801.389C718.991 799.179 729.254 791.412 729.254 791.412L737.816 773.121V752.617L741.246 739.859L760.071 732.103L748.079 714.361C748.079 714.361 742.082 704.936 742.082 703.275C742.082 703.178 741.993 703.049 741.977 702.951C741.295 702.037 740.609 701.154 739.911 700.257C738.741 699.461 737.195 698.843 735.234 698.843C730.951 698.843 734.369 702.725 734.369 702.725C734.369 702.725 730.939 706.608 725.823 709.93C720.676 713.263 703.552 702.725 700.986 701.614C698.465 700.523 694.275 698.912 687.642 697.269C687.52 697.24 687.414 697.211 687.292 697.18C680.444 695.529 680.444 694.417 671.882 696.078C663.336 697.739 677.029 698.851 677.029 702.723C677.029 706.605 652.192 699.96 652.192 699.96C652.192 699.96 634.216 692.745 625.654 687.202C617.092 681.659 631.65 676.676 631.65 676.676L606.829 665.589C584.573 667.81 574.294 659.486 574.294 659.486L582.856 651.17C582.856 651.17 541.743 651.17 539.193 650.621C536.628 650.061 522.918 641.195 522.918 641.195C522.918 641.195 516.069 636.761 509.208 633.431C502.36 630.109 496.38 625.667 489.535 622.904C482.686 620.124 472.411 609.597 466.415 602.393C460.418 595.188 442.442 573.575 437.311 565.808C432.179 558.041 422.752 549.738 422.752 549.738L438.175 537.54L448.454 530.885C448.454 530.885 429.613 529.784 425.334 528.123C421.051 526.461 420.203 522.009 420.203 522.009C420.203 522.009 427.052 518.137 434.761 517.026C442.458 515.914 442.458 514.805 443.323 510.923C444.171 507.04 419.334 505.929 419.334 505.929L409.055 499.833L400.493 493.73C400.493 493.73 400.493 485.974 401.358 483.753C402.222 481.543 401.358 478.77 398.792 478.22C396.242 477.66 387.68 475.999 385.098 474.888C382.533 473.786 375.684 472.667 375.684 472.667C373.967 476.549 364.556 472.667 364.556 472.667C354.277 468.784 361.99 469.344 361.99 469.344L352.759 466.109L341.343 462.108C341.343 464.114 341.432 465.617 341.586 466.945C341.907 467.426 342.073 467.878 342.362 468.351C343.742 470.651 344.639 472.814 345.094 474.819C346.446 476.43 348.159 478.425 350.315 482.063C350.315 482.063 362.307 480.951 367.865 487.046C369.294 488.6 358.893 495.893 355.629 499.589C354.914 500.404 354.415 501.103 354.61 501.458C361.881 515.866 382.451 533.332 386.718 538.602C389.605 542.161 392.548 545.925 395.402 549.61C396.709 551.31 397.984 552.99 399.226 554.632C404.098 561.061 408.32 566.82 410.687 570.192C414.97 576.288 420.101 580.17 423.532 586.273C426.962 592.368 434.66 598.471 434.66 604.014C434.66 609.547 411.539 622.305 416.671 628.4C421.802 634.503 430.364 633.384 417.519 635.615C404.674 637.826 405.539 635.615 404.674 638.378C403.81 641.151 405.539 641.151 402.957 646.694C400.391 652.237 392.678 655.559 381.55 655.01C370.422 654.461 380.702 657.783 375.554 671.64C370.422 685.499 357.565 673.861 331.027 681.617C309.636 687.867 290.645 693.058 280.426 699.19C279.273 701.666 277.572 706.71 278.409 713.836C279.972 727.143 290.446 747.579 330.178 771.434C330.178 771.434 338.452 775.1 349.003 782.717C355.06 785.95 359.753 788.163 361.877 788.615C372.14 790.826 373.857 788.615 390.128 789.165C406.388 789.714 430.36 800.811 444.918 804.133C459.477 807.466 521.996 841.827 521.996 841.827C521.996 841.827 543.387 843.488 548.535 843.488C551.799 843.488 554.941 844.568 557.097 847.065C558.343 848.5 559.342 850.28 559.663 852.913C560.511 860.118 563.946 859.008 575.073 866.213C586.201 873.428 581.922 866.213 588.767 868.434C595.628 870.655 595.616 875.089 585.336 883.402C584.837 883.815 584.5 884.041 584.078 884.385C583.014 885.211 582.105 885.91 581.374 886.43C588.6 886.825 595.705 887.277 602.46 887.826C664.111 892.809 720.619 882.843 764.297 871.196C764.541 871.138 764.724 871.068 764.951 870.999C767.411 868.739 769.871 866.223 772.847 863.432C780.593 856.257 768.613 856.806 756.62 856.806Z" fill="#FFFFFD"/>
<path d="M392.032 847.076C386.734 815.446 365.206 794.411 349.04 782.725C338.505 775.108 330.215 771.442 330.215 771.442C290.499 747.586 280.008 727.161 278.445 713.843C277.609 706.718 279.31 701.685 280.463 699.198C280.995 698.068 281.405 697.429 281.405 697.429C266.725 674.489 245.927 656.579 222.06 642.515C132.595 589.792 -0.502753 591.845 -21.1952 592.526C-6.55987 605.42 -3.23494 621.511 11.2948 634.467C59.5285 677.488 103.313 729.966 139.079 764.7C139.079 764.7 165.873 772.651 179.567 791.73C197.328 798.012 244.027 799.555 285.777 814.513C313.895 824.577 345.017 835.803 376.033 847.086C381.603 849.11 387.144 851.136 392.686 853.16C392.471 851.126 392.365 849.031 392.032 847.076Z" fill="#333534"/>
<path d="M552.578 914.454C541.601 914.454 453.517 884.525 453.517 884.525C453.517 884.525 462.489 884.357 476.637 884.288C451.179 874.666 422.273 863.992 392.653 853.16C387.112 851.137 381.57 849.11 376 847.086C344.984 835.803 313.862 824.577 285.745 814.513C243.994 799.552 209.077 787.178 191.315 780.898C192.241 782.176 193.26 783.385 194.064 784.752C194.064 784.752 196.524 789.509 200.669 796.95C207.518 809.217 219.023 828.835 232.124 847.089C235.615 851.964 239.212 856.74 242.874 861.243C268.56 892.844 317.37 906.151 325.067 924.442C326.204 927.144 327.328 929.701 328.453 932.159C386.235 926.006 441.967 922.034 483.867 919.587C527.591 917.032 556.252 916.128 556.252 916.128C555.189 915.613 553.853 915.024 552.578 914.454Z" fill="#354C3C"/>
<path d="M328.465 932.146C327.341 929.688 326.22 927.133 325.079 924.429C317.382 906.146 268.572 892.828 242.886 861.229C239.228 856.727 235.627 851.951 232.136 847.076C219.047 828.824 207.526 809.196 200.681 796.937C196.536 789.496 194.076 784.739 194.076 784.739C193.272 783.372 192.253 782.173 191.328 780.885C177.65 761.806 152.996 751.477 152.996 751.477C117.229 716.74 70.8916 674.389 22.6621 631.365C8.13229 618.41 -6.5477 605.397 -21.1993 592.51C-51.6066 565.716 -81.7298 539.493 -109.466 515.509C-111.061 517.888 -112.746 520.216 -114.293 522.616C-159.396 592.126 -185.314 668.094 -188.379 747.749L56.8369 860.528L279.505 942.433L330.227 954.366L340.49 956.027C340.49 956.027 334.888 946.32 328.465 932.146Z" fill="#090909"/>
<path d="M286.565 936.971L246.304 920.93L60.9372 847.076L-188.379 747.755C-188.574 753.011 -189 758.221 -189 763.509C-189 791.867 -185.797 819.73 -180.134 847.076C-174.332 875.06 -165.681 902.432 -154.338 929.11C-146.702 947.067 -137.957 964.73 -127.954 981.99C-116.566 981.901 -104.968 981.803 -93.1863 981.706C70.0026 972.36 276.899 958.077 321.332 954.981C326.951 954.587 330.199 954.361 330.199 954.361L286.565 936.971Z" fill="#1E201F"/>
<path d="M764.334 871.214C764.533 871.175 764.773 871.086 764.972 871.039L764.988 871.028C764.757 871.088 764.574 871.156 764.334 871.214Z" fill="#272D17"/>
<path d="M476.653 884.288C462.505 884.357 453.533 884.525 453.533 884.525C461.718 884.927 470.507 885.174 479.524 885.379C478.57 885.006 477.628 884.651 476.653 884.288Z" fill="#272D17"/>
<path d="M1143.34 912.725C1149.01 912.764 1152.21 912.793 1152.21 912.793C1152.21 912.793 1148.41 911.437 1143.34 912.725Z" fill="#2F381C"/>
<path d="M1687.54 777.064C1667.34 780.935 1647 782.46 1627.38 786.471C1561.99 799.81 1505.05 812.507 1491.28 815.485C1479.76 817.972 1430.58 830.209 1373.51 844.56C1277.82 868.62 1159.94 901.155 1159.94 901.155C1159.94 901.155 1149.4 904.645 1139.64 912.693C1137.36 914.57 1135.19 916.772 1133.13 919.151C1131.76 920.615 1130.41 922.305 1129.1 924.439C1118.83 941.069 1139.64 966.723 1139.64 966.723C1203.57 990.066 1628.07 1005.81 1815.11 1010.34C1825.17 994.706 1776.2 968.603 1784.31 952.354C1801.6 917.667 1794.59 881.607 1802.28 844.56C1807.15 821.021 1801.58 810.767 1802.28 786.471C1866.86 786.471 1815.08 754.994 1815.11 752.723C1800.04 755.37 1703.21 774.057 1687.54 777.064Z" fill="#2F381C"/>
<path d="M1531.48 455.114L1530.45 450.425C1530.45 450.425 1511.07 444.645 1500.8 444.086C1490.52 443.536 1485.39 446.859 1481.96 447.968C1478.53 449.069 1473.41 450.741 1468.26 450.189C1463.13 449.629 1435.73 464.597 1418.6 469.031C1401.48 473.466 1371.51 483.44 1363.81 483.44C1356.1 483.44 1340.69 482.891 1329.57 486.213C1318.42 489.546 1266.2 501.182 1257.64 505.064C1249.07 508.946 1226.82 521.694 1187.42 525.016C1164.05 526.992 1110.69 534.136 1064.19 534.394C1063.32 534.394 1062.41 534.444 1061.56 534.444C1036.39 534.444 1058.71 581.652 1071.9 592.631C1071.9 592.631 1114.29 600.111 1141.27 587.647C1168.24 575.165 1133.55 580.156 1168.24 575.165C1202.92 570.171 1226.04 577.662 1226.04 577.662C1226.04 577.662 1264.59 597.625 1287.71 585.153C1310.82 572.671 1326.24 562.694 1341.66 555.213C1357.07 547.722 1407.16 522.776 1407.16 522.776C1407.16 522.776 1407.16 517.793 1445.71 500.317C1484.25 482.862 1518.91 482.862 1518.91 482.862L1534.33 467.893L1531.48 455.114Z" fill="#FFFFFD"/>
</g>
<path d="M109.099 178.5C109.099 196.683 123.839 211.422 142.021 211.422C160.204 211.422 174.944 196.683 174.944 178.5C174.944 160.317 160.204 145.577 142.021 145.577C123.839 145.577 109.099 160.317 109.099 178.5Z" fill="white"/>
<path fill-rule="evenodd" clip-rule="evenodd" d="M107.145 178.5C107.145 197.761 122.76 213.376 142.021 213.376C161.283 213.376 176.897 197.761 176.897 178.5C176.897 159.239 161.283 143.624 142.021 143.624C122.76 143.624 107.145 159.239 107.145 178.5ZM142.021 211.422C123.839 211.422 109.099 196.683 109.099 178.5C109.099 160.317 123.839 145.577 142.021 145.577C160.204 145.577 174.944 160.317 174.944 178.5C174.944 196.683 160.204 211.422 142.021 211.422Z" fill="black"/>
<path fill-rule="evenodd" clip-rule="evenodd" d="M145.928 207.516C127.745 207.516 113.005 192.776 113.005 174.594C113.005 166.497 115.928 159.083 120.776 153.349C113.634 159.388 109.099 168.414 109.099 178.5C109.099 196.683 123.839 211.422 142.021 211.422C152.107 211.422 161.134 206.887 167.173 199.745C161.439 204.593 154.025 207.516 145.928 207.516Z" fill="black"/>
<path d="M133.871 195.17C107.636 180.022 90.6758 160.28 95.9912 151.073C99.2041 145.509 109.816 145.067 123.503 148.931C121.668 150.118 119.72 151.676 118.975 152.306C111.957 151.086 106.861 151.827 105.118 154.847C101.249 161.55 115.351 176.936 136.617 189.213C157.882 201.491 178.258 206.011 182.128 199.309C184.001 196.064 181.661 190.782 176.334 184.804C176.702 182.901 176.902 180.121 176.913 178.942C188.628 189.634 194.443 199.964 191 205.927C185.685 215.133 160.108 210.317 133.871 195.17Z" fill="white"/>
<path fill-rule="evenodd" clip-rule="evenodd" d="M174.999 174.552L174.96 178.925C174.95 180.013 174.757 182.671 174.417 184.433L174.234 185.382L174.876 186.103C177.464 189.007 179.225 191.634 180.125 193.824C181.038 196.046 180.936 197.468 180.436 198.332C179.921 199.226 178.676 200.049 176.147 200.346C173.663 200.637 170.327 200.361 166.319 199.472C158.326 197.699 148.103 193.589 137.593 187.522C127.084 181.454 118.414 174.655 112.881 168.62C110.107 165.593 108.2 162.842 107.211 160.545C106.203 158.207 106.294 156.717 106.81 155.824C107.273 155.019 108.322 154.271 110.402 153.911C112.465 153.554 115.248 153.641 118.641 154.231L119.541 154.387L120.237 153.797C120.946 153.197 122.824 151.696 124.563 150.571L128.191 148.225L124.033 147.052C117.073 145.086 110.759 144.174 105.687 144.518C100.687 144.857 96.3955 146.467 94.2998 150.097C92.5645 153.102 92.7891 156.73 94.1465 160.395C95.5088 164.075 98.1074 168.08 101.618 172.166C108.651 180.353 119.638 189.207 132.895 196.861C146.152 204.515 159.313 209.603 169.92 211.6C175.214 212.597 179.981 212.845 183.85 212.185C187.702 211.528 190.957 209.908 192.692 206.903C194.932 203.023 193.949 198.135 191.364 193.289C188.733 188.356 184.177 182.928 178.229 177.5L174.999 174.552ZM121.011 148.267C108.538 145.141 99.0059 145.852 95.9912 151.073C90.6758 160.28 107.636 180.022 133.871 195.17C160.108 210.317 185.685 215.133 191 205.927C194.254 200.291 189.238 190.755 178.788 180.699C178.181 180.115 177.556 179.529 176.913 178.942C176.907 179.508 176.859 180.443 176.769 181.473C176.671 182.588 176.526 183.814 176.334 184.804C181.661 190.782 184.001 196.064 182.128 199.309C178.258 206.011 157.882 201.491 136.617 189.213C115.351 176.936 101.249 161.549 105.118 154.847C106.861 151.827 111.957 151.086 118.975 152.306C119.434 151.917 120.351 151.176 121.416 150.387C122.079 149.896 122.799 149.386 123.503 148.931C122.66 148.693 121.829 148.472 121.011 148.267Z" fill="black"/>
<path fill-rule="evenodd" clip-rule="evenodd" d="M97.9443 150.097C92.6289 159.303 109.589 179.046 135.825 194.193C157.553 206.738 178.83 212.197 188.519 208.472C180.018 213.941 157.205 208.641 133.872 195.17C107.636 180.022 90.6758 160.28 95.9912 151.073C96.9043 149.491 98.416 148.324 100.426 147.551C99.3681 148.231 98.5322 149.078 97.9443 150.097ZM120.312 151.227C119.736 151.676 119.265 152.061 118.975 152.306C114.588 151.543 110.952 151.547 108.417 152.395C110.732 150.704 114.923 150.365 120.312 151.227ZM176.689 182.303C177.241 182.787 177.838 183.339 178.288 183.827C182.419 188.315 185.955 195.087 184.081 198.333C183.427 199.465 182.302 200.277 180.782 200.785C181.345 200.374 181.797 199.883 182.128 199.309C184.001 196.064 181.661 190.782 176.334 184.804C176.479 184.055 176.598 183.172 176.689 182.303Z" fill="black"/>
<path fill-rule="evenodd" clip-rule="evenodd" d="M107.413 148.513C109.806 148.362 112.449 148.638 114.879 149.082C115.144 149.13 115.398 148.954 115.447 148.689C115.495 148.424 115.32 148.169 115.054 148.121C112.581 147.669 109.853 147.381 107.353 147.538C104.863 147.695 102.528 148.297 100.914 149.697C100.71 149.874 100.688 150.183 100.864 150.386C101.041 150.59 101.35 150.612 101.554 150.435C102.93 149.241 105.01 148.664 107.413 148.513Z" fill="black"/>
<path fill-rule="evenodd" clip-rule="evenodd" d="M155.975 203.117C155.75 203.608 155.965 204.188 156.456 204.412C164.823 208.247 175.075 209.402 179.177 209.506C179.716 209.519 180.164 209.093 180.178 208.554C180.191 208.015 179.765 207.567 179.226 207.553C175.271 207.453 165.309 206.321 157.269 202.637C156.779 202.412 156.2 202.627 155.975 203.117Z" fill="white"/>
<path d="M120.673 171.184C120.673 172.162 121.466 172.954 122.443 172.954C123.421 172.954 124.213 172.162 124.213 171.184C124.213 170.207 123.421 169.414 122.443 169.414C121.466 169.414 120.673 170.207 120.673 171.184Z" fill="black"/>
<path d="M149.956 155.118C149.956 156.096 150.748 156.888 151.726 156.888C152.704 156.888 153.496 156.096 153.496 155.118C153.496 154.141 152.704 153.348 151.726 153.348C150.748 153.348 149.956 154.141 149.956 155.118Z" fill="black"/>
<path d="M162.844 168.621C162.844 169.599 163.636 170.391 164.614 170.391C165.591 170.391 166.384 169.599 166.384 168.621C166.384 167.643 165.591 166.851 164.614 166.851C163.636 166.851 162.844 167.643 162.844 168.621Z" fill="black"/>
<path d="M154.116 186.443C154.116 187.96 155.346 189.19 156.862 189.19C158.379 189.19 159.609 187.96 159.609 186.443C159.609 184.926 158.379 183.697 156.862 183.697C155.346 183.697 154.116 184.926 154.116 186.443Z" fill="black"/>
<path d="M141.768 168.438C141.768 169.955 142.997 171.184 144.514 171.184C146.031 171.184 147.261 169.955 147.261 168.438C147.261 166.921 146.031 165.691 144.514 165.691C142.997 165.691 141.768 166.921 141.768 168.438Z" fill="black"/>
<path d="M128.213 156.888C128.213 158.405 129.443 159.635 130.96 159.635C132.477 159.635 133.706 158.405 133.706 156.888C133.706 155.372 132.477 154.142 130.96 154.142C129.443 154.142 128.213 155.372 128.213 156.888Z" fill="black"/>
<path d="M132.642 183.697C132.642 185.214 133.872 186.443 135.389 186.443C136.906 186.443 138.136 185.214 138.136 183.697C138.136 182.18 136.906 180.95 135.389 180.95C133.872 180.95 132.642 182.18 132.642 183.697Z" fill="black"/>
<path d="M741.099 91.4999C741.099 109.683 755.839 124.422 774.021 124.422C792.204 124.422 806.944 109.683 806.944 91.4999C806.944 73.3173 792.204 58.5773 774.021 58.5773C755.839 58.5773 741.099 73.3173 741.099 91.4999Z" fill="white"/>
<path fill-rule="evenodd" clip-rule="evenodd" d="M739.146 91.4999C739.146 110.761 754.76 126.376 774.021 126.376C793.283 126.376 808.897 110.761 808.897 91.4999C808.897 72.2386 793.283 56.6242 774.021 56.6242C754.76 56.6242 739.146 72.2386 739.146 91.4999ZM774.021 124.422C755.839 124.422 741.099 109.683 741.099 91.4999C741.099 73.3173 755.839 58.5773 774.021 58.5773C792.204 58.5773 806.944 73.3173 806.944 91.4999C806.944 109.683 792.204 124.422 774.021 124.422Z" fill="black"/>
<path fill-rule="evenodd" clip-rule="evenodd" d="M777.928 120.516C759.745 120.516 745.005 105.776 745.005 87.5937C745.005 79.4968 747.928 72.0825 752.776 66.3486C745.634 72.3878 741.099 81.4143 741.099 91.4999C741.099 109.683 755.839 124.422 774.021 124.422C784.107 124.422 793.134 119.887 799.173 112.745C793.439 117.593 786.025 120.516 777.928 120.516Z" fill="black"/>
<path d="M765.871 108.17C739.636 93.0224 722.676 73.2797 727.991 64.0732C731.204 58.5092 741.816 58.0669 755.503 61.9314C753.668 63.1177 751.72 64.6756 750.975 65.3064C743.957 64.0859 738.861 64.8273 737.118 67.8474C733.249 74.5495 747.351 89.9356 768.617 102.213C789.882 114.491 810.258 119.011 814.128 112.309C816.001 109.064 813.661 103.782 808.334 97.8037C808.702 95.9008 808.902 93.1214 808.913 91.9425C820.628 102.634 826.443 112.964 823 118.927C817.685 128.133 792.108 123.317 765.871 108.17Z" fill="white"/>
<path fill-rule="evenodd" clip-rule="evenodd" d="M806.999 87.5519L806.96 91.9247C806.95 93.0133 806.757 95.6712 806.417 97.4332L806.234 98.3816L806.876 99.1029C809.464 102.007 811.225 104.634 812.125 106.824C813.038 109.046 812.936 110.468 812.436 111.332C811.921 112.226 810.676 113.049 808.147 113.346C805.663 113.637 802.327 113.361 798.319 112.472C790.326 110.699 780.103 106.589 769.593 100.522C759.084 94.4544 750.414 87.6555 744.881 81.6198C742.107 78.5932 740.2 75.8424 739.211 73.5451C738.203 71.2067 738.294 69.7173 738.81 68.8239C739.273 68.0194 740.322 67.2713 742.402 66.9111C744.465 66.5538 747.248 66.6405 750.641 67.2306L751.541 67.387L752.238 66.7968C752.946 66.1968 754.824 64.696 756.563 63.5713L760.191 61.2255L756.034 60.0517C749.073 58.0863 742.759 57.1741 737.688 57.5179C732.688 57.8567 728.396 59.467 726.3 63.0966C724.564 66.1016 724.789 69.7301 726.146 73.3953C727.509 77.0752 730.107 81.0799 733.618 85.1663C740.651 93.3534 751.638 102.207 764.895 109.861C778.152 117.515 791.313 122.603 801.92 124.6C807.214 125.597 811.981 125.845 815.85 125.185C819.702 124.528 822.957 122.908 824.692 119.903C826.932 116.023 825.949 111.135 823.364 106.289C820.733 101.356 816.177 95.9282 810.229 90.4998L806.999 87.5519ZM753.011 61.2667C740.538 58.1407 731.006 58.8517 727.991 64.0731C722.676 73.2796 739.636 93.0224 765.871 108.17C792.108 123.317 817.685 128.133 823 118.927C826.254 113.291 821.238 103.755 810.788 93.6993C810.181 93.1152 809.556 92.5294 808.913 91.9425C808.907 92.5085 808.859 93.4435 808.769 94.4731C808.671 95.5882 808.526 96.8144 808.334 97.8036C813.661 103.782 816.001 109.064 814.128 112.309C810.258 119.011 789.882 114.491 768.617 102.213C747.351 89.9356 733.249 74.5494 737.118 67.8474C738.861 64.8272 743.957 64.0859 750.975 65.3062C751.434 64.9175 752.351 64.1763 753.416 63.387C754.079 62.8959 754.799 62.3862 755.503 61.9312C754.66 61.6934 753.829 61.4718 753.011 61.2667Z" fill="black"/>
<path fill-rule="evenodd" clip-rule="evenodd" d="M729.944 63.0966C724.629 72.3031 741.589 92.0458 767.825 107.193C789.553 119.738 810.83 125.197 820.519 121.472C812.018 126.941 789.205 121.641 765.872 108.17C739.636 93.0224 722.676 73.2797 727.991 64.0731C728.904 62.4914 730.416 61.3235 732.426 60.5509C731.368 61.2311 730.532 62.078 729.944 63.0966ZM752.312 64.2268C751.736 64.6759 751.265 65.0611 750.975 65.3063C746.588 64.5434 742.952 64.5472 740.417 65.3948C742.732 63.7039 746.923 63.3648 752.312 64.2268ZM808.689 95.3029C809.241 95.7868 809.838 96.3391 810.288 96.8271C814.419 101.315 817.955 108.087 816.081 111.333C815.427 112.465 814.302 113.277 812.782 113.785C813.345 113.374 813.797 112.883 814.128 112.309C816.001 109.064 813.661 103.782 808.334 97.8037C808.479 97.0555 808.598 96.1717 808.689 95.3029Z" fill="black"/>
<path fill-rule="evenodd" clip-rule="evenodd" d="M739.413 61.5127C741.806 61.3622 744.449 61.6381 746.879 62.0816C747.144 62.1301 747.398 61.9543 747.447 61.6891C747.495 61.4237 747.32 61.1694 747.054 61.121C744.581 60.6694 741.853 60.3808 739.353 60.538C736.863 60.6945 734.528 61.2973 732.914 62.6974C732.71 62.8741 732.688 63.1825 732.864 63.3862C733.041 63.59 733.35 63.6118 733.554 63.4352C734.93 62.2412 737.01 61.6639 739.413 61.5127Z" fill="black"/>
<path fill-rule="evenodd" clip-rule="evenodd" d="M787.975 116.117C787.75 116.608 787.965 117.188 788.456 117.412C796.823 121.247 807.075 122.402 811.177 122.506C811.716 122.519 812.164 122.093 812.178 121.554C812.191 121.015 811.765 120.567 811.226 120.553C807.271 120.453 797.309 119.321 789.269 115.637C788.779 115.412 788.2 115.627 787.975 116.117Z" fill="white"/>
<path d="M752.673 84.1845C752.673 85.162 753.466 85.9545 754.443 85.9545C755.421 85.9545 756.213 85.162 756.213 84.1845C756.213 83.2069 755.421 82.4145 754.443 82.4145C753.466 82.4145 752.673 83.2069 752.673 84.1845Z" fill="black"/>
<path d="M781.956 68.1185C781.956 69.096 782.748 69.8885 783.726 69.8885C784.704 69.8885 785.496 69.096 785.496 68.1185C785.496 67.1408 784.704 66.3484 783.726 66.3484C782.748 66.3484 781.956 67.1408 781.956 68.1185Z" fill="black"/>
<path d="M794.844 81.621C794.844 82.5985 795.636 83.391 796.614 83.391C797.591 83.391 798.384 82.5985 798.384 81.621C798.384 80.6435 797.591 79.851 796.614 79.851C795.636 79.851 794.844 80.6435 794.844 81.621Z" fill="black"/>
<path d="M786.116 99.4433C786.116 100.96 787.346 102.19 788.862 102.19C790.379 102.19 791.609 100.96 791.609 99.4433C791.609 97.9264 790.379 96.6967 788.862 96.6967C787.346 96.6967 786.116 97.9264 786.116 99.4433Z" fill="black"/>
<path d="M773.768 81.4379C773.768 82.9548 774.997 84.1845 776.514 84.1845C778.031 84.1845 779.261 82.9548 779.261 81.4379C779.261 79.921 778.031 78.6913 776.514 78.6913C774.997 78.6913 773.768 79.921 773.768 81.4379Z" fill="black"/>
<path d="M760.213 69.8885C760.213 71.4054 761.443 72.6351 762.96 72.6351C764.477 72.6351 765.706 71.4054 765.706 69.8885C765.706 68.3716 764.477 67.1419 762.96 67.1419C761.443 67.1419 760.213 68.3716 760.213 69.8885Z" fill="black"/>
<path d="M764.642 96.6967C764.642 98.2136 765.872 99.4433 767.389 99.4433C768.906 99.4433 770.136 98.2136 770.136 96.6967C770.136 95.1798 768.906 93.9501 767.389 93.9501C765.872 93.9501 764.642 95.1798 764.642 96.6967Z" fill="black"/>
<path d="M1546.05 277C1546.05 311.91 1517.75 340.211 1482.84 340.211C1447.93 340.211 1419.63 311.91 1419.63 277C1419.63 242.089 1447.93 213.789 1482.84 213.789C1517.75 213.789 1546.05 242.089 1546.05 277Z" fill="white"/>
<path fill-rule="evenodd" clip-rule="evenodd" d="M1549.8 277C1549.8 313.982 1519.82 343.961 1482.84 343.961C1445.86 343.961 1415.88 313.982 1415.88 277C1415.88 240.018 1445.86 210.039 1482.84 210.039C1519.82 210.039 1549.8 240.018 1549.8 277ZM1482.84 340.211C1517.75 340.211 1546.05 311.91 1546.05 277C1546.05 242.089 1517.75 213.789 1482.84 213.789C1447.93 213.789 1419.63 242.089 1419.63 277C1419.63 311.91 1447.93 340.211 1482.84 340.211Z" fill="black"/>
<path fill-rule="evenodd" clip-rule="evenodd" d="M1475.34 332.711C1510.25 332.711 1538.55 304.41 1538.55 269.5C1538.55 253.954 1532.94 239.718 1523.63 228.709C1537.34 240.305 1546.05 257.635 1546.05 277C1546.05 311.91 1517.75 340.211 1482.84 340.211C1463.47 340.211 1446.14 331.504 1434.55 317.79C1445.56 327.099 1459.79 332.711 1475.34 332.711Z" fill="black"/>
<path d="M1498.49 309.006C1548.86 279.923 1581.42 242.017 1571.22 224.34C1565.05 213.658 1544.67 212.808 1518.39 220.228C1521.92 222.506 1525.66 225.497 1527.09 226.708C1540.56 224.365 1550.35 225.788 1553.69 231.587C1561.12 244.455 1534.05 273.996 1493.22 297.57C1452.39 321.143 1413.26 329.821 1405.83 316.953C1402.24 310.722 1406.73 300.582 1416.96 289.103C1416.25 285.449 1415.87 280.113 1415.85 277.85C1393.35 298.378 1382.19 318.21 1388.8 329.659C1399 347.335 1448.11 338.089 1498.49 309.006Z" fill="white"/>
<path fill-rule="evenodd" clip-rule="evenodd" d="M1419.52 269.42L1419.6 277.815C1419.62 279.905 1419.99 285.009 1420.64 288.392L1420.99 290.213L1419.76 291.598C1414.79 297.174 1411.41 302.217 1409.68 306.422C1407.93 310.689 1408.12 313.418 1409.08 315.078C1410.07 316.793 1412.46 318.374 1417.32 318.944C1422.09 319.503 1428.49 318.973 1436.19 317.266C1451.53 313.862 1471.16 305.972 1491.34 294.322C1511.52 282.672 1528.17 269.618 1538.79 258.03C1544.11 252.219 1547.78 246.937 1549.68 242.527C1551.61 238.037 1551.44 235.177 1550.45 233.462C1549.55 231.917 1547.54 230.481 1543.55 229.789C1539.59 229.103 1534.24 229.27 1527.73 230.403L1526 230.703L1524.66 229.57C1523.3 228.418 1519.7 225.536 1516.36 223.377L1509.39 218.873L1517.38 216.619C1530.74 212.846 1542.86 211.094 1552.6 211.754C1562.2 212.405 1570.44 215.497 1574.46 222.465C1577.8 228.235 1577.37 235.202 1574.76 242.239C1572.14 249.304 1567.15 256.993 1560.41 264.839C1546.91 280.559 1525.81 297.558 1500.36 312.254C1474.91 326.949 1449.64 336.718 1429.27 340.553C1419.11 342.467 1409.96 342.943 1402.53 341.676C1395.13 340.414 1388.88 337.304 1385.55 331.534C1381.25 324.085 1383.14 314.7 1388.1 305.394C1393.15 295.923 1401.9 285.502 1413.32 275.08L1419.52 269.42ZM1523.18 218.952C1547.13 212.95 1565.43 214.315 1571.22 224.34C1581.42 242.017 1548.86 279.923 1498.49 309.006C1448.11 338.089 1399 347.335 1388.8 329.659C1382.55 318.839 1392.18 300.53 1412.25 281.223C1413.41 280.101 1414.61 278.976 1415.85 277.85C1415.86 278.936 1415.95 280.731 1416.12 282.708C1416.31 284.849 1416.59 287.204 1416.96 289.103C1406.73 300.582 1402.24 310.722 1405.83 316.953C1413.26 329.821 1452.39 321.143 1493.22 297.57C1534.05 273.996 1561.12 244.455 1553.69 231.587C1550.35 225.788 1540.56 224.365 1527.09 226.708C1526.21 225.962 1524.45 224.538 1522.4 223.023C1521.13 222.08 1519.75 221.102 1518.39 220.228C1520.01 219.771 1521.61 219.346 1523.18 218.952Z" fill="black"/>
<path fill-rule="evenodd" clip-rule="evenodd" d="M1567.47 222.465C1577.67 240.142 1545.11 278.048 1494.74 307.131C1453.02 331.217 1412.17 341.698 1393.56 334.547C1409.89 345.048 1453.69 334.872 1498.49 309.006C1548.86 279.923 1581.42 242.017 1571.22 224.34C1569.46 221.304 1566.56 219.061 1562.7 217.578C1564.73 218.884 1566.34 220.51 1567.47 222.465ZM1524.52 224.636C1525.63 225.498 1526.53 226.237 1527.09 226.708C1535.51 225.243 1542.49 225.251 1547.36 226.878C1542.92 223.632 1534.87 222.981 1524.52 224.636ZM1416.28 284.302C1415.22 285.231 1414.07 286.291 1413.21 287.228C1405.28 295.845 1398.49 308.847 1402.08 315.078C1403.34 317.252 1405.5 318.811 1408.42 319.787C1407.34 318.998 1406.47 318.054 1405.83 316.953C1402.24 310.722 1406.73 300.582 1416.96 289.103C1416.68 287.667 1416.45 285.97 1416.28 284.302Z" fill="black"/>
<path fill-rule="evenodd" clip-rule="evenodd" d="M1549.29 219.424C1544.69 219.135 1539.62 219.665 1534.95 220.517C1534.44 220.61 1533.95 220.272 1533.86 219.763C1533.77 219.254 1534.11 218.765 1534.62 218.672C1539.36 217.805 1544.6 217.251 1549.4 217.553C1554.18 217.854 1558.67 219.011 1561.76 221.699C1562.16 222.038 1562.2 222.63 1561.86 223.022C1561.52 223.413 1560.93 223.455 1560.54 223.116C1557.89 220.823 1553.9 219.715 1549.29 219.424Z" fill="black"/>
<path fill-rule="evenodd" clip-rule="evenodd" d="M1456.05 324.266C1456.48 325.207 1456.07 326.32 1455.13 326.751C1439.06 334.114 1419.38 336.332 1411.5 336.531C1410.47 336.557 1409.61 335.739 1409.58 334.703C1409.55 333.668 1410.37 332.808 1411.41 332.782C1419 332.59 1438.13 330.417 1453.56 323.342C1454.5 322.911 1455.62 323.324 1456.05 324.266Z" fill="white"/>
<path d="M1523.83 262.954C1523.83 264.831 1522.31 266.353 1520.43 266.353C1518.55 266.353 1517.03 264.831 1517.03 262.954C1517.03 261.077 1518.55 259.556 1520.43 259.556C1522.31 259.556 1523.83 261.077 1523.83 262.954Z" fill="black"/>
<path d="M1467.6 232.107C1467.6 233.984 1466.08 235.506 1464.21 235.506C1462.33 235.506 1460.81 233.984 1460.81 232.107C1460.81 230.23 1462.33 228.709 1464.21 228.709C1466.08 228.709 1467.6 230.23 1467.6 232.107Z" fill="black"/>
<path d="M1442.86 258.032C1442.86 259.909 1441.34 261.431 1439.46 261.431C1437.58 261.431 1436.06 259.909 1436.06 258.032C1436.06 256.155 1437.58 254.634 1439.46 254.634C1441.34 254.634 1442.86 256.155 1442.86 258.032Z" fill="black"/>
<path d="M1459.62 292.251C1459.62 295.164 1457.26 297.525 1454.34 297.525C1451.43 297.525 1449.07 295.164 1449.07 292.251C1449.07 289.339 1451.43 286.978 1454.34 286.978C1457.26 286.978 1459.62 289.339 1459.62 292.251Z" fill="black"/>
<path d="M1483.33 257.681C1483.33 260.593 1480.97 262.954 1478.05 262.954C1475.14 262.954 1472.78 260.593 1472.78 257.681C1472.78 254.768 1475.14 252.407 1478.05 252.407C1480.97 252.407 1483.33 254.768 1483.33 257.681Z" fill="black"/>
<path d="M1509.35 235.506C1509.35 238.418 1506.99 240.779 1504.08 240.779C1501.17 240.779 1498.8 238.418 1498.8 235.506C1498.8 232.593 1501.17 230.232 1504.08 230.232C1506.99 230.232 1509.35 232.593 1509.35 235.506Z" fill="black"/>
<path d="M1500.85 286.978C1500.85 289.89 1498.49 292.251 1495.57 292.251C1492.66 292.251 1490.3 289.89 1490.3 286.978C1490.3 284.065 1492.66 281.704 1495.57 281.704C1498.49 281.704 1500.85 284.065 1500.85 286.978Z" fill="black"/>
<path d="M1584.76 754.305H1597.81V790.186H1584.76V754.305Z" fill="#464655"/>
<path d="M1584.76 783.663H1597.81C1599.61 783.663 1601.07 785.124 1601.07 786.925V796.711H1581.5V786.925C1581.5 785.124 1582.96 783.663 1584.76 783.663Z" fill="#959CB5"/>
<path d="M1571.71 809.759H1610.86L1607.6 796.711H1574.98L1571.71 809.759Z" fill="#AFB9D2"/>
<path d="M1537.11 727.977L1602.09 765.489C1603.65 766.39 1605.64 765.855 1606.54 764.295L1613.07 752.996C1613.97 751.436 1613.43 749.441 1611.87 748.54L1546.9 711.028L1537.11 727.977Z" fill="#5B5D6E"/>
<path d="M1502.78 715.686L1531.03 731.996C1532.59 732.897 1534.58 732.362 1535.48 730.802L1548.53 708.203C1549.43 706.643 1548.9 704.648 1547.34 703.747L1519.09 687.438C1517.53 686.537 1515.53 687.072 1514.63 688.631L1501.58 711.231C1500.68 712.79 1501.22 714.786 1502.78 715.686Z" fill="#464655"/>
<path d="M1613.07 752.995L1659.37 779.732L1673.06 776.066C1674.8 775.599 1676.59 776.632 1677.05 778.372L1678.74 784.674C1679.21 786.414 1678.18 788.203 1676.44 788.669L1661.45 792.685C1658.94 793.357 1656.27 793.005 1654.02 791.707L1606.54 764.295L1613.07 752.995Z" fill="#464655"/>
<path d="M1617.84 774.082C1618.96 774.082 1620.06 773.499 1620.67 772.451L1635.34 747.024C1636.25 745.463 1635.71 743.469 1634.15 742.568C1632.6 741.666 1630.6 742.198 1629.69 743.763L1615.01 769.189C1614.11 770.75 1614.65 772.744 1616.21 773.645C1616.72 773.941 1617.28 774.082 1617.84 774.082Z" fill="#5B5D6E"/>
<path d="M1612.75 733.978L1646.64 753.55C1648.2 754.45 1650.2 753.916 1651.1 752.356L1654.36 746.706C1655.26 745.146 1654.73 743.151 1653.17 742.251L1619.27 722.679C1617.71 721.778 1615.71 722.313 1614.81 723.873L1611.55 729.522C1610.65 731.083 1611.19 733.078 1612.75 733.978Z" fill="#464655"/>
<path d="M1545.8 870.664L1571.13 797.832C1572.04 795.211 1574.52 793.449 1577.3 793.449H1605.28C1608.05 793.449 1610.53 795.211 1611.44 797.832L1636.77 870.664C1637.36 872.365 1636.47 874.223 1634.76 874.815C1633.07 875.414 1631.2 874.509 1630.61 872.805L1605.28 799.973H1594.55V871.735C1594.55 873.537 1593.09 874.996 1591.29 874.996C1589.48 874.996 1588.02 873.537 1588.02 871.735V799.973H1577.3L1551.96 872.805C1551.49 874.152 1550.23 874.996 1548.88 874.996C1548.52 874.996 1548.17 874.939 1547.81 874.815C1546.11 874.223 1545.21 872.365 1545.8 870.664Z" fill="#D5DCED"/>
<path d="M1545.58 732.869L1555.37 715.921L1561.02 719.183L1551.23 736.131L1545.58 732.869Z" fill="#464655"/>
<path d="M1655.44 777.46L1659.37 779.732L1673.06 776.065C1674.8 775.599 1676.59 776.631 1677.05 778.372L1678.74 784.674C1679.21 786.414 1678.18 788.202 1676.43 788.669L1661.45 792.685C1658.94 793.356 1656.27 793.005 1654.02 791.707L1648.91 788.76L1655.44 777.46Z" fill="#5B5D6E"/>
<path d="M1614.81 723.873C1615.71 722.312 1617.71 721.778 1619.27 722.679L1627.74 727.572L1621.22 738.871L1612.75 733.978C1611.19 733.077 1610.65 731.082 1611.55 729.522L1614.81 723.873Z" fill="#5B5D6E"/>
</g>
<defs>
<linearGradient id="paint0_linear_1_2" x1="495" y1="55" x2="874" y2="828.5" gradientUnits="userSpaceOnUse">
<stop stop-color="#689B86"/>
<stop offset="0.39" stop-color="#6D888B"/>
<stop offset="0.747457" stop-color="#918CC3"/>
<stop offset="1" stop-color="#9A94D8"/>
</linearGradient>
<clipPath id="clip0_1_2">
<rect width="1728" height="1117" fill="white"/>
</clipPath>
<clipPath id="clip1_1_2">
<rect width="1923" height="1245" fill="white" transform="translate(-189 141)"/>
</clipPath>
</defs>
</svg>
