<svg width="477" height="98" viewBox="0 0 477 98" fill="none" xmlns="http://www.w3.org/2000/svg">
<path d="M0 11.5754V0H62.0417V11.5754H38.0072V76.2261H24.0345V11.5754H0Z" fill="#0068D9"/>
<path d="M84.8753 77.3427C79.028 77.3427 73.9781 76.1516 69.7255 73.7696C65.4983 71.3627 62.2456 67.9633 59.9675 63.5714C57.6893 59.1546 56.5502 53.9563 56.5502 47.9763C56.5502 42.0956 57.6893 36.9344 59.9675 32.4929C62.2709 28.0265 65.4857 24.5526 69.6116 22.0713C73.7376 19.5652 78.585 18.3121 84.1538 18.3121C87.7483 18.3121 91.1402 18.8828 94.3296 20.0242C97.5443 21.1408 100.379 22.8778 102.835 25.235C105.315 27.5923 107.264 30.5946 108.682 34.2422C110.099 37.8649 110.808 42.1824 110.808 47.1947V51.3261H63.005V42.2444H97.6329C97.6076 39.6639 97.0381 37.3686 95.9243 35.3588C94.8105 33.3241 93.2538 31.7236 91.2541 30.5574C89.2797 29.3912 86.9762 28.8081 84.3437 28.8081C81.534 28.8081 79.066 29.4781 76.9397 30.818C74.8134 32.1331 73.1554 33.87 71.9657 36.0287C70.8013 38.1627 70.2065 40.5075 70.1812 43.0633V50.9911C70.1812 54.316 70.8013 57.1696 72.0417 59.5516C73.282 61.9089 75.0159 63.7202 77.2435 64.9857C79.471 66.2264 82.0782 66.8467 85.0651 66.8467C87.0648 66.8467 88.8747 66.5738 90.4947 66.0279C92.1147 65.4572 93.5196 64.6259 94.7093 63.5341C95.899 62.4424 96.7976 61.09 97.4051 59.4772L110.239 60.8915C109.429 64.2165 107.885 67.1196 105.606 69.601C103.354 72.0575 100.468 73.9681 96.9495 75.3328C93.431 76.6727 89.4063 77.3427 84.8753 77.3427Z" fill="#0068D9"/>
<path d="M130.301 0V76.2261H116.556V0H130.301Z" fill="#0068D9"/>
<path d="M164.373 77.3427C158.526 77.3427 153.476 76.1516 149.223 73.7696C144.996 71.3627 141.743 67.9633 139.465 63.5714C137.187 59.1546 136.048 53.9563 136.048 47.9763C136.048 42.0956 137.187 36.9344 139.465 32.4929C141.769 28.0265 144.983 24.5526 149.109 22.0713C153.235 19.5652 158.083 18.3121 163.652 18.3121C167.246 18.3121 170.638 18.8828 173.827 20.0242C177.042 21.1408 179.877 22.8778 182.332 25.235C184.813 27.5923 186.762 30.5946 188.18 34.2422C189.597 37.8649 190.306 42.1824 190.306 47.1947V51.3261H142.503V42.2444H177.131C177.105 39.6639 176.536 37.3686 175.422 35.3588C174.308 33.3241 172.751 31.7236 170.752 30.5574C168.777 29.3912 166.474 28.8081 163.841 28.8081C161.032 28.8081 158.564 29.4781 156.437 30.818C154.311 32.1331 152.653 33.87 151.463 36.0287C150.299 38.1627 149.704 40.5075 149.679 43.0633V50.9911C149.679 54.316 150.299 57.1696 151.539 59.5516C152.78 61.9089 154.514 63.7202 156.741 64.9857C158.969 66.2264 161.576 66.8467 164.563 66.8467C166.563 66.8467 168.372 66.5738 169.992 66.0279C171.612 65.4572 173.017 64.6259 174.207 63.5341C175.397 62.4424 176.295 61.09 176.903 59.4772L189.736 60.8915C188.926 64.2165 187.382 67.1196 185.104 69.601C182.851 72.0575 179.966 73.9681 176.447 75.3328C172.929 76.6727 168.904 77.3427 164.373 77.3427Z" fill="#0068D9"/>
<path d="M242.148 34.1678L229.618 35.5077C229.264 34.267 228.644 33.1008 227.758 32.009C226.897 30.9172 225.733 30.0363 224.264 29.3664C222.796 28.6964 220.999 28.3615 218.873 28.3615C216.012 28.3615 213.608 28.9694 211.659 30.1852C209.735 31.4011 208.786 32.9767 208.811 34.9121C208.786 36.5746 209.406 37.9269 210.671 38.9691C211.962 40.0112 214.089 40.8673 217.05 41.5373L226.998 43.6216C232.516 44.7878 236.617 46.6364 239.3 49.1673C242.009 51.6983 243.376 55.0108 243.401 59.105C243.376 62.7029 242.3 65.879 240.174 68.6332C238.073 71.3627 235.149 73.4966 231.403 75.035C227.656 76.5735 223.353 77.3427 218.493 77.3427C211.355 77.3427 205.609 75.8787 201.255 72.9507C196.901 69.998 194.307 65.8914 193.471 60.631L206.875 59.3655C207.482 61.9461 208.773 63.8939 210.747 65.209C212.722 66.5241 215.291 67.1817 218.455 67.1817C221.721 67.1817 224.34 66.5241 226.315 65.209C228.315 63.8939 229.314 62.2687 229.314 60.3332C229.314 58.6956 228.669 57.3433 227.378 56.2763C226.112 55.2093 224.138 54.3905 221.455 53.8198L211.507 51.7727C205.913 50.6313 201.774 48.7083 199.091 46.0036C196.408 43.2742 195.079 39.8251 195.104 35.6565C195.079 32.1331 196.053 29.081 198.028 26.5005C200.027 23.8951 202.799 21.8852 206.343 20.4709C209.912 19.0317 214.025 18.3121 218.683 18.3121C225.517 18.3121 230.896 19.7389 234.82 22.5924C238.769 25.4459 241.211 29.3044 242.148 34.1678Z" fill="#0068D9"/>
<path d="M274.293 77.3427C268.472 77.3427 263.472 76.0896 259.296 73.5835C255.144 71.0773 251.942 67.6159 249.689 63.1992C247.462 58.7576 246.348 53.6461 246.348 47.8646C246.348 42.0583 247.487 36.9344 249.765 32.4929C252.044 28.0265 255.258 24.5526 259.41 22.0713C263.586 19.5652 268.522 18.3121 274.218 18.3121C278.951 18.3121 283.14 19.1682 286.785 20.8803C290.456 22.5676 293.379 24.9621 295.556 28.0637C297.733 31.1405 298.973 34.7384 299.277 38.8574H286.14C285.608 36.1032 284.343 33.808 282.343 31.9718C280.369 30.1108 277.723 29.1803 274.407 29.1803C271.598 29.1803 269.13 29.9247 267.003 31.4135C264.877 32.8775 263.219 34.9866 262.029 37.7408C260.865 40.4951 260.283 43.7953 260.283 47.6413C260.283 51.537 260.865 54.8867 262.029 57.6906C263.194 60.4697 264.826 62.6161 266.927 64.1297C269.054 65.6184 271.547 66.3628 274.407 66.3628C276.432 66.3628 278.242 65.9906 279.837 65.2463C281.457 64.477 282.811 63.3729 283.9 61.9337C284.988 60.4945 285.735 58.7452 286.14 56.6857H299.277C298.948 60.7303 297.733 64.3158 295.632 67.4422C293.531 70.5439 290.671 72.9756 287.051 74.7373C283.431 76.4742 279.179 77.3427 274.293 77.3427Z" fill="#0068D9"/>
<path d="M330.122 77.3427C324.427 77.3427 319.491 76.1144 315.314 73.6579C311.138 71.2014 307.898 67.7648 305.594 63.348C303.316 58.9313 302.177 53.7702 302.177 47.8646C302.177 41.9591 303.316 36.7855 305.594 32.344C307.898 27.9024 311.138 24.4534 315.314 21.9969C319.491 19.5404 324.427 18.3121 330.122 18.3121C335.818 18.3121 340.754 19.5404 344.93 21.9969C349.107 24.4534 352.334 27.9024 354.612 32.344C356.916 36.7855 358.068 41.9591 358.068 47.8646C358.068 53.7702 356.916 58.9313 354.612 63.348C352.334 67.7648 349.107 71.2014 344.93 73.6579C340.754 76.1144 335.818 77.3427 330.122 77.3427ZM330.198 66.5489C333.286 66.5489 335.868 65.7177 337.944 64.0552C340.02 62.3679 341.564 60.1099 342.576 57.2812C343.614 54.4525 344.133 51.3012 344.133 47.8274C344.133 44.3287 343.614 41.1651 342.576 38.3364C341.564 35.4828 340.02 33.2124 337.944 31.5251C335.868 29.8378 333.286 28.9942 330.198 28.9942C327.034 28.9942 324.402 29.8378 322.301 31.5251C320.225 33.2124 318.668 35.4828 317.63 38.3364C316.618 41.1651 316.112 44.3287 316.112 47.8274C316.112 51.3012 316.618 54.4525 317.63 57.2812C318.668 60.1099 320.225 62.3679 322.301 64.0552C324.402 65.7177 327.034 66.5489 330.198 66.5489Z" fill="#0068D9"/>
<path d="M363.853 97.6647V19.0565H377.37V28.5103H378.167C378.876 27.1208 379.876 25.6444 381.167 24.0812C382.458 22.4931 384.205 21.1408 386.407 20.0242C388.609 18.8828 391.419 18.3121 394.836 18.3121C399.342 18.3121 403.404 19.4411 407.024 21.6991C410.669 23.9323 413.555 27.2449 415.681 31.6368C417.833 36.0039 418.908 41.3636 418.908 47.7157C418.908 53.9935 417.858 59.3283 415.757 63.7202C413.656 68.1122 410.796 71.462 407.176 73.7696C403.556 76.0772 399.456 77.231 394.874 77.231C391.533 77.231 388.761 76.6851 386.559 75.5934C384.356 74.5016 382.585 73.1865 381.243 71.648C379.927 70.0848 378.901 68.6084 378.167 67.2189H377.598V97.6647H363.853ZM377.332 47.6413C377.332 51.3385 377.864 54.5766 378.927 57.3557C380.015 60.1347 381.572 62.3059 383.597 63.8691C385.647 65.4075 388.128 66.1767 391.039 66.1767C394.077 66.1767 396.62 65.3827 398.671 63.7947C400.721 62.1818 402.265 59.9859 403.303 57.2068C404.366 54.4029 404.898 51.2144 404.898 47.6413C404.898 44.093 404.379 40.9417 403.341 38.1875C402.303 35.4332 400.759 33.2745 398.709 31.7112C396.658 30.148 394.102 29.3664 391.039 29.3664C388.103 29.3664 385.609 30.1232 383.559 31.6368C381.509 33.1504 379.952 35.2719 378.889 38.0014C377.851 40.7308 377.332 43.9441 377.332 47.6413Z" fill="#0068D9"/>
<path d="M450.617 77.3427C444.77 77.3427 439.72 76.1516 435.468 73.7696C431.24 71.3627 427.988 67.9633 425.709 63.5714C423.431 59.1546 422.292 53.9563 422.292 47.9763C422.292 42.0956 423.431 36.9344 425.709 32.4929C428.013 28.0265 431.228 24.5526 435.354 22.0713C439.48 19.5652 444.327 18.3121 449.896 18.3121C453.49 18.3121 456.882 18.8828 460.072 20.0242C463.286 21.1408 466.121 22.8778 468.577 25.235C471.057 27.5923 473.006 30.5946 474.424 34.2422C475.841 37.8649 476.55 42.1824 476.55 47.1947V51.3261H428.747V42.2444H463.375C463.35 39.6639 462.78 37.3686 461.666 35.3588C460.553 33.3241 458.996 31.7236 456.996 30.5574C455.022 29.3912 452.718 28.8081 450.086 28.8081C447.276 28.8081 444.808 29.4781 442.682 30.818C440.555 32.1331 438.897 33.87 437.708 36.0287C436.543 38.1627 435.948 40.5075 435.923 43.0633V50.9911C435.923 54.316 436.543 57.1696 437.784 59.5516C439.024 61.9089 440.758 63.7202 442.985 64.9857C445.213 66.2264 447.82 66.8467 450.807 66.8467C452.807 66.8467 454.617 66.5738 456.237 66.0279C457.857 65.4572 459.262 64.6259 460.451 63.5341C461.641 62.4424 462.54 61.09 463.147 59.4772L475.981 60.8915C475.171 64.2165 473.627 67.1196 471.348 69.601C469.096 72.0575 466.21 73.9681 462.691 75.3328C459.173 76.6727 455.148 77.3427 450.617 77.3427Z" fill="#0068D9"/>
</svg>
