<svg width="169" height="169" viewBox="0 0 169 169" fill="none" xmlns="http://www.w3.org/2000/svg">
<path d="M106.787 109.723C139.087 81.0425 164.113 43.3626 149.438 26.8358C144.784 21.5968 138.284 19.1674 131.306 19.9138C125.447 20.5546 119.427 23.4487 113.357 28.3075C103.815 23.3642 93.1648 20.9511 82.4242 21.2987C71.6837 21.6464 61.2118 24.7433 52.0097 30.2932C44.8562 34.5286 38.6149 40.1424 33.648 46.8089C28.6811 53.4754 25.0874 61.0618 23.0755 69.128C19.9399 81.553 20.6919 94.6409 25.2303 106.625C17.7309 115.096 10.7667 132.517 19.435 142.277C23.0755 146.368 28.2864 148.199 34.5535 148.199C53.6152 148.199 82.4931 131.306 106.787 109.723ZM132.834 33.9056C135.355 33.6662 137.284 34.3563 138.897 36.1801C140.523 38.0179 140.087 42.8415 137.122 49.7634C133.938 44.9167 130.107 40.5268 125.736 36.7152C128.771 34.8703 131.2 34.0887 132.834 33.9056ZM32.624 120.539C35.7552 125.081 39.4671 129.193 43.6654 132.771C36.4477 134.904 31.596 134.763 29.9693 132.918C28.4413 131.207 29.9834 125.391 32.624 120.539ZM147.474 79.2117C138.918 91.8656 127.011 105.062 113.829 116.765C100.21 128.87 85.1971 139.355 71.2265 146.354C75.5614 147.308 79.984 147.809 84.4225 147.847C95.8746 147.835 107.109 144.715 116.927 138.819C127.127 132.781 135.408 123.978 140.814 113.43C146.22 102.881 148.529 91.0177 147.474 79.2117Z" fill="#007AFF"/>
<path d="M61.3993 138.604C40.0007 138.604 29.3825 117.327 25.5323 106.385C75.1381 143.832 128.472 89.5659 148.939 57.7518C134.835 92.7676 83.8921 126.041 61.3993 138.604Z" fill="#53A5FF"/>
</svg>
